<?xml version="1.0" encoding="UTF-8"?>
<svg width="36px" height="36px" viewBox="0 0 36 36" version="1.1" xmlns="http://www.w3.org/2000/svg" xmlns:xlink="http://www.w3.org/1999/xlink">
    <!-- Generator: Sketch 58 (84663) - https://sketch.com -->
    <title>Group-3</title>
    <desc>Created with Sketch.</desc>
    <defs>
        <polygon id="path-1" points="0 0 35.4257494 0 35.4257494 35.7146889 0 35.7146889"></polygon>
    </defs>
    <g id="Page-1" stroke="none" stroke-width="1" fill="none" fill-rule="evenodd">
        <g id="Group-3">
            <g id="Fill-1-Clipped">
                <mask id="mask-2" fill="white">
                    <use xlink:href="#path-1"></use>
                </mask>
                <g id="path-1"></g>
                <path d="M5.78570944,29.7363249 C5.26946841,29.0686477 2.80865285,25.4321531 5.08671642,19.3939221 C5.46922835,18.3787583 5.90609898,17.3482597 6.3279626,16.3514977 C6.74282296,15.3725241 7.21170854,14.2644313 7.62523496,13.1679931 C8.02842318,13.2103172 8.41893882,13.2317859 8.78711075,13.2317859 C10.5385951,13.2317859 12.1957021,12.8165195 13.7120768,11.9970278 L13.7657684,11.9666649 L13.7651015,11.9648247 C14.0565709,11.7847941 14.235321,11.4796316 14.235321,11.1554539 C14.235321,10.6175091 13.7594322,10.1798539 13.1741589,10.1798539 C13.0147512,10.1798539 12.8563439,10.2138972 12.7119431,10.2786101 L12.7102757,10.274623 L12.6365746,10.3141868 C10.9694629,11.2155663 9.10125741,11.4885258 7.14567769,11.1263178 C6.00547871,10.8662396 5.22378042,10.4334915 5.05436799,9.96823367 C4.9596571,9.71091573 5.09938901,9.49868207 5.19109849,9.39471213 C5.50124329,9.0429318 6.14187572,8.72427467 6.76383277,8.41512507 C7.62790285,7.98575067 8.52131993,7.54226827 8.92984405,6.8061978 C10.0473658,6.33051231 13.8681496,4.83567597 17.7129447,4.82616839 C21.5584067,4.83567597 25.3785236,6.33051231 26.4957118,6.8061978 C26.9049028,7.54226827 27.7979864,7.9860574 28.665058,8.41635187 C29.2843471,8.72458133 29.9249795,9.04323853 30.2347908,9.39471213 C30.3265003,9.49868207 30.4662322,9.71152913 30.3718548,9.96823367 C30.2021089,10.4334915 29.4200771,10.8662396 28.283213,11.1257044 C26.3182956,11.4900593 24.4564264,11.2155663 22.7889812,10.3141868 L22.7152801,10.2755431 L22.7139462,10.2786101 C22.5695454,10.2138972 22.4114716,10.1798539 22.2513969,10.1798539 C21.6664571,10.1798539 21.1905683,10.6175091 21.1905683,11.1554539 C21.1905683,11.4796316 21.3693184,11.7844875 21.6607878,11.9648247 L21.6594539,11.9675849 L21.714146,11.9970278 C23.2301872,12.8165195 24.8869607,13.2317859 26.6387786,13.2317859 C27.0069505,13.2317859 27.3974661,13.2103172 27.8009879,13.1679931 C28.2121799,14.2595242 28.6820659,15.3700705 29.0975932,16.3514977 C29.5211243,17.3522468 29.9593289,18.3867324 30.3391729,19.3939221 C32.6172365,25.4321531 30.1564209,29.0686477 29.6398464,29.7363249 C27.5772167,32.4021266 23.5643432,33.7571096 17.7132781,33.7632435 L17.7129447,33.7632435 C11.8618796,33.7571096 7.84900609,32.4021266 5.78570944,29.7363249 Z M31.5730823,4.53603397 C30.6840006,5.06109753 29.5548067,5.20125761 28.4629636,4.92155085 C28.6420472,3.89166565 29.2496642,3.0047008 30.1377455,2.48055732 C30.7196839,2.13705779 31.4123406,1.95518705 32.1410142,1.95518705 C32.5115204,1.95518705 32.8836942,2.00241824 33.2481977,2.09534713 C33.0691141,3.12461893 32.4608301,4.01189049 31.5730823,4.53603397 Z M2.17802509,2.09534713 C2.54186162,2.00241824 2.91436887,1.95518705 3.28454169,1.95518705 C4.01354872,1.95518705 4.70620544,2.13705779 5.28847729,2.48055732 C6.1758916,3.0047008 6.7838421,3.89197235 6.96325921,4.92155085 C5.87074914,5.20095091 4.74222225,5.06140423 3.85314049,4.53603397 C2.9650592,4.01158379 2.3571087,3.12431224 2.17802509,2.09534713 Z M35.4258911,1.43380384 L35.4245471,0.80998416 L34.8079259,0.548985855 C33.9575289,0.189844829 33.0310964,0 32.1290085,0 C31.0051505,0 29.9199772,0.290134424 28.9912103,0.838506887 C27.5905563,1.66597272 26.6381116,3.04365119 26.3673185,4.62804277 C25.8143937,4.41979618 25.2487963,4.22565761 24.6855333,4.05022749 C22.1943702,3.27459329 19.8486084,2.87895543 17.7126112,2.87466169 C15.5772809,2.87895543 13.2315191,3.27459329 10.740356,4.05022749 C10.179094,4.22473752 9.61383,4.41918279 9.0585708,4.62804277 C8.78777767,3.04334449 7.83533301,1.66597272 6.43501258,0.838506887 C5.50591213,0.290134424 4.42073883,0 3.29688079,0 C2.39445947,0 1.46802694,0.189844829 0.617963397,0.548985855 L0.001342177,0.80998416 L6.47933448e-15,1.43380384 C-0.00332666945,3.40187213 1.00814557,5.17518845 2.70627172,6.1780844 C3.4486183,6.61665969 4.30335068,6.89329947 5.19209896,6.9837748 C4.58314799,7.30273867 3.97919935,7.67077387 3.54232872,8.16608793 C2.92904239,8.86167447 2.74228853,9.7679612 3.04242866,10.5902132 C3.27553749,11.2275275 3.90016244,12.1083584 5.55326758,12.707029 C5.175758,13.6952036 4.75656228,14.6852183 4.35070613,15.6430299 C3.92017179,16.6606473 3.47429696,17.7123079 3.08178037,18.7544609 C2.79097793,19.5239612 2.10699193,21.5742241 2.02895549,23.9848547 C1.94091438,26.6988077 2.62323294,29.0143625 4.05690229,30.8674198 C6.53139091,34.0656458 11.1015246,35.6963485 17.6399106,35.7147502 L17.6399106,35.7147502 L17.7129447,35.7147502 L17.7859787,35.7147502 L17.7859787,35.7147502 C24.3240312,35.6963485 28.8948319,34.0656458 31.368987,30.8674198 C32.8026564,29.0143625 33.4853084,26.6988077 33.3972673,23.9848547 C33.3188974,21.5733039 32.6345779,19.5239612 32.3444425,18.7544609 C31.9552607,17.7227355 31.5140548,16.6799691 31.0875223,15.6715527 L31.0751832,15.6430299 C30.6903368,14.7355165 30.2554672,13.7096183 29.8726218,12.707029 C31.5253934,12.1083584 32.1503518,11.2275275 32.3834607,10.5902132 C32.6836008,9.7679612 32.4968469,8.86167447 31.8835606,8.16608793 C31.44669,7.67077387 30.8430748,7.30273867 30.2341238,6.9837748 C31.1225387,6.89329947 31.977271,6.61665969 32.7196176,6.1780844 C34.4180773,5.17518845 35.4295495,3.40187213 35.4258911,1.43380384 Z M19.5261245,30.8836747 C20.4025337,31.2621375 21.4116715,31.4621033 22.4441536,31.4621033 C24.1592876,31.4621033 25.8630831,30.9121974 27.1186693,29.9537724 C28.4622966,28.9284876 30.517256,26.5022155 29.1836334,21.7748032 L29.1589552,21.7097837 L29.1562873,21.7107037 C29.0112196,21.3187463 28.6086983,21.0506939 28.1538193,21.0506939 C27.568546,21.0506939 27.0926572,21.4880425 27.0926572,22.0259873 C27.0926572,22.1293438 27.1109991,22.2327003 27.1456819,22.3290029 C27.8900294,25.0288479 27.3991336,27.2033226 25.7633699,28.4521887 C24.8736212,29.1312137 23.7027412,29.5053828 22.4664973,29.5053828 C21.7314875,29.5053828 21.0074828,29.3673696 20.4275454,29.1174124 C19.6735267,28.7913945 18.7741067,28.1362919 18.7741067,26.8653436 L18.7741067,19.7766787 L23.7280864,16.950475 L23.7797771,16.9194987 L23.7791101,16.9179652 C24.0622423,16.7351744 24.2293204,16.4413597 24.2293204,16.1214757 C24.2293204,15.5832242 23.753765,15.145569 23.1688252,15.145569 C22.9910756,15.145569 22.8163273,15.1869729 22.6602544,15.2657938 L22.6582535,15.2639537 L17.7132781,18.0858636 L12.8166587,15.2921697 L12.7562972,15.2584331 L12.7546297,15.2602733 C12.6012248,15.1851328 12.4304784,15.145569 12.2570641,15.145569 C11.6721244,15.145569 11.1962355,15.5832242 11.1962355,16.1214757 C11.1962355,16.4382927 11.3606456,16.7293472 11.6387754,16.9124447 L11.636441,16.9155117 L16.6517826,19.7766787 L16.6517826,26.8653436 C16.6517826,28.1356785 15.7523627,28.7910878 14.9980105,29.1174124 C14.4184065,29.3673696 13.6944018,29.5053828 12.959392,29.5053828 C11.7228147,29.5053828 10.5522682,29.1312137 9.66251944,28.4521887 C8.02675574,27.2033226 7.53585988,25.0288479 8.27853995,22.3336033 C8.31455675,22.2333137 8.33289868,22.1296505 8.33289868,22.0259873 C8.33289868,21.4880425 7.85734327,21.0506939 7.27240355,21.0506939 C6.8175245,21.0506939 6.41567022,21.3184395 6.26993551,21.7097837 L6.26126479,21.7076368 L6.24258941,21.7748032 C4.90896677,26.5022155 6.96325921,28.9284876 8.30722002,29.9537724 C9.56247275,30.9121974 11.2666016,31.4621033 12.9820693,31.4621033 C14.0142178,31.4621033 15.0233556,31.2621375 15.8997648,30.8836747 C16.6297723,30.5683912 17.2393902,30.1430038 17.7132781,29.6191671 C18.1864991,30.1430038 18.7961171,30.5683912 19.5261245,30.8836747 Z" id="Fill-1" fill="#3FC2CD" fill-rule="nonzero" mask="url(#mask-2)"></path>
            </g>
        </g>
    </g>
</svg>