<?xml version="1.0" encoding="UTF-8"?>
<svg width="400px" height="349px" viewBox="0 0 400 349" version="1.1" xmlns="http://www.w3.org/2000/svg" xmlns:xlink="http://www.w3.org/1999/xlink">
    <title>Logo_of_Google_Drive</title>
    <g id="Page-1" stroke="none" stroke-width="1" fill="none" fill-rule="evenodd">
        <g id="Logo_of_Google_Drive">
            <g id="Group" transform="translate(3.780718, 5.293006)" fill="#0BA25E" fill-rule="nonzero">
                <polygon id="Path" points="126.359168 0.831758034 126.691871 0.824196597 126.722117 1.19470699 126.298677 1.20982987"></polygon>
                <path d="M125.066163,3.31190926 C125.361059,2.88846881 125.935728,2.0415879 126.230624,1.61814745 L126.759924,1.53497164 C127.153119,6.3289225 128.559546,10.9489603 129.618147,15.6143667 C134.170132,35.8865784 138.767486,56.1436673 143.553875,76.3553875 C146.691871,90.2155009 150.192817,104.007561 153.066163,117.920605 C155.561437,126.533081 156.899811,135.417769 159.311909,144.045369 C160.869565,152.090737 163.311909,159.939509 164.620038,168.030246 C164.090737,168.914934 163.561437,169.807183 163.024575,170.691871 C162.89603,170.89603 162.623819,171.319471 162.495274,171.531191 L162.298677,171.871456 C162.268431,171.931947 162.200378,172.060491 162.162571,172.120983 C161.867675,172.665406 161.277883,173.746692 160.982987,174.283554 C160.930057,174.381853 160.816635,174.57845 160.756144,174.676749 L160.219282,175.62949 C160.151229,175.742911 160.022684,175.962193 159.962193,176.075614 L159.334594,177.172023 C159.304348,177.232514 159.236295,177.353497 159.198488,177.413989 L158.41966,178.775047 C158.351607,178.888469 158.215501,179.130435 158.147448,179.251418 C158.071834,179.379962 157.920605,179.62949 157.844991,179.758034 L157.081285,181.073724 C157.020794,181.172023 156.899811,181.383743 156.839319,181.482042 L156.37051,182.275992 C156.294896,182.412098 156.128544,182.691871 156.05293,182.827977 C155.750473,183.349716 155.153119,184.393195 154.850662,184.922495 C154.797732,185.013233 154.68431,185.202268 154.63138,185.300567 L154.155009,186.094518 C154.079395,186.238185 153.913043,186.510397 153.829868,186.654064 C153.550095,187.145558 152.975425,188.120983 152.695652,188.612476 C152.627599,188.725898 152.499055,188.960302 152.431002,189.073724 L151.863894,190.094518 C151.810964,190.185255 151.705104,190.374291 151.652174,190.465028 L151.069943,191.485822 C151.009452,191.591682 150.888469,191.803403 150.827977,191.909263 C150.52552,192.408318 149.935728,193.413989 149.640832,193.920605 C149.572779,194.034026 149.436673,194.268431 149.36862,194.389414 L148.831758,195.357278 C148.778828,195.448015 148.680529,195.621928 148.635161,195.712665 L148.015123,196.786389 C147.962193,196.884688 147.848771,197.073724 147.795841,197.164461 C147.478261,197.708885 146.850662,198.79017 146.533081,199.334594 C146.480151,199.432892 146.359168,199.62949 146.298677,199.727788 L145.844991,200.476371 C145.769376,200.612476 145.610586,200.877127 145.534972,201.013233 C145.247637,201.512287 144.680529,202.502836 144.393195,203.00189 C144.347826,203.085066 144.241966,203.266541 144.196597,203.349716 L143.57656,204.453686 C143.531191,204.536862 143.440454,204.695652 143.395085,204.778828 L142.759924,205.890359 C142.706994,205.973535 142.601134,206.155009 142.548204,206.238185 C142.253308,206.73724 141.655955,207.720227 141.361059,208.219282 C141.277883,208.347826 141.126654,208.620038 141.043478,208.756144 L140.597353,209.587902 C140.536862,209.693762 140.42344,209.905482 140.37051,210.003781 L139.591682,211.349716 C139.531191,211.463138 139.395085,211.689981 139.334594,211.803403 C139.266541,211.909263 139.145558,212.128544 139.085066,212.234405 C137.807183,214.389414 136.650284,216.612476 135.236295,218.68431 C127.183365,231.818526 119.773157,245.361059 111.977316,258.654064 C99.3194707,280.559546 86.6767486,302.465028 74.0189036,324.37051 C72.120983,327.780718 69.9584121,331.047259 68.3251418,334.608696 C68.241966,334.729679 68.0756144,334.971645 67.9924386,335.092628 C64.9603025,330.722117 62.6162571,325.897921 59.8412098,321.361059 C47.1833648,299.440454 34.5179584,277.52741 21.8676749,255.599244 C14.8355388,243.266541 7.50850662,231.085066 0.665406427,218.638941 C27.7655955,171.871456 54.7448015,125.020794 81.7920605,78.2230624 C81.8147448,78.1776938 81.8676749,78.094518 81.8903592,78.0491493 L82.63138,76.778828 C82.6616257,76.7258979 82.7221172,76.6200378 82.7599244,76.5671078 L83.5085066,75.289225 C83.5765595,75.1758034 83.7126654,74.9338374 83.7882798,74.8204159 C83.8638941,74.68431 84.0151229,74.4196597 84.0907372,74.2835539 L84.8393195,72.952741 C84.8922495,72.8620038 84.9981096,72.6805293 85.0510397,72.5897921 L85.610586,71.6975425 C85.7088847,71.5538752 85.905482,71.2589792 86.0037807,71.1077505 C86.2759924,70.6994329 86.8279773,69.8752363 87.1077505,69.4669187 C87.1379962,69.3308129 87.1909263,69.0661626 87.221172,68.9376181 L87.879017,67.6748582 C87.9092628,67.6219282 87.9697543,67.5160681 88,67.463138 L88.7561437,66.1928166 C88.831758,66.0718336 88.9829868,65.8147448 89.0586011,65.6862004 C89.1417769,65.5425331 89.3081285,65.2476371 89.3988658,65.0964083 L90.0340265,63.9848771 C90.1020794,63.8638941 90.2381853,63.6294896 90.3062382,63.5160681 L90.8355388,62.5860113 C90.8960302,62.4877127 91.0170132,62.2759924 91.0775047,62.1701323 C91.3724008,61.6635161 91.9621928,60.6502836 92.2646503,60.1436673 C92.3251418,60.0378072 92.4461248,59.826087 92.5066163,59.7202268 L93.0586011,58.7145558 C93.1039698,58.6389414 93.194707,58.4725898 93.2400756,58.3969754 L93.9659735,57.1266541 C94.0567108,56.9754253 94.2457467,56.6654064 94.3440454,56.5141777 L94.8355388,55.7731569 C94.9413989,55.6219282 95.1455577,55.3270321 95.2514178,55.1833648 C95.342155,55.0321361 95.5311909,54.7296786 95.6294896,54.5784499 L96.0378072,53.7920605 C96.173913,53.4971645 96.4536862,52.9073724 96.5897921,52.6124764 L97.0056711,52.0302457 C97.0812854,51.9243856 97.2249527,51.7202268 97.3005671,51.6143667 C97.5803403,51.3799622 98.147448,50.8960302 98.4272212,50.6540643 L98.3742911,49.7693762 C98.4196597,49.6635161 98.5255198,49.4517958 98.5784499,49.3459357 L99.221172,48.0680529 C99.2741021,47.9773157 99.3799622,47.7882798 99.4328922,47.6975425 L100,46.7750473 C100.10586,46.6238185 100.310019,46.3213611 100.415879,46.1701323 C100.672968,45.7466919 101.194707,44.9149338 101.451796,44.4990548 C101.52741,44.3478261 101.663516,44.0529301 101.73913,43.9017013 L102.139887,43.0321361 C102.26087,42.805293 102.517958,42.3440454 102.646503,42.1096408 L103.145558,41.3988658 C103.251418,41.2551985 103.463138,40.9678639 103.568998,40.8241966 C103.659735,40.6729679 103.848771,40.3705104 103.939509,40.2192817 L104.310019,39.4404537 C104.393195,39.2665406 104.567108,38.9111531 104.650284,38.7372401 L105.300567,37.4820416 C105.398866,37.3308129 105.587902,37.0132325 105.678639,36.8544423 L106.177694,36.1134216 C106.283554,35.9621928 106.495274,35.6748582 106.601134,35.5236295 C106.699433,35.3724008 106.888469,35.0623819 106.979206,34.9111531 L107.364839,34.1247637 C107.478261,33.905482 107.697543,33.4744802 107.803403,33.2551985 L108.31758,32.4083176 C108.408318,32.2646503 108.589792,31.9773157 108.688091,31.8336484 C108.960302,31.4102079 109.512287,30.563327 109.79206,30.147448 C109.822306,30.0189036 109.890359,29.7618147 109.920605,29.6332703 L110.57845,28.3780718 C110.601134,28.3251418 110.661626,28.2268431 110.691871,28.173913 L111.448015,26.8809074 C111.523629,26.7523629 111.667297,26.5028355 111.742911,26.3742911 C111.818526,26.2533081 111.962193,25.9962193 112.037807,25.8752363 L112.793951,24.5519849 C112.824197,24.4990548 112.884688,24.3931947 112.914934,24.3327032 L113.625709,23.100189 C113.663516,23.047259 113.731569,22.9338374 113.761815,22.8733459 L114.52552,21.5879017 C114.593573,21.4669187 114.729679,21.2400756 114.797732,21.1190926 C114.873346,20.9905482 115.024575,20.7258979 115.100189,20.5897921 L115.826087,19.3119093 C115.871456,19.2287335 115.962193,19.0699433 116.007561,18.9943289 L116.620038,18.0037807 C116.718336,17.8601134 116.914934,17.5652174 117.005671,17.4215501 C117.285444,17.0056711 117.829868,16.173913 118.109641,15.758034 C118.132325,15.6294896 118.192817,15.3724008 118.223062,15.2438563 L118.865784,14.0113422 C118.918715,13.9206049 119.032136,13.731569 119.085066,13.6332703 L119.659735,12.7334594 C119.765595,12.5897921 119.962193,12.294896 120.068053,12.1436673 C120.332703,11.7202268 120.862004,10.8809074 121.126654,10.4574669 C121.164461,10.3364839 121.232514,10.094518 121.270321,9.97353497 L121.935728,8.72589792 C121.965974,8.66540643 122.026465,8.55954631 122.056711,8.49905482 L122.827977,7.19848771 C122.888469,7.08506616 123.024575,6.85822306 123.092628,6.74480151 C123.160681,6.61625709 123.296786,6.37429112 123.364839,6.25330813 L124.120983,4.9073724 C124.15879,4.85444234 124.219282,4.74102079 124.249527,4.68809074 L124.967864,3.47069943 C124.990548,3.43289225 125.043478,3.34971645 125.066163,3.31190926 Z" id="Path"></path>
            </g>
            <path d="M130.47259,6.11720227 C155.032136,6.00378072 179.599244,6.1020794 204.166352,6.06427221 C224.491493,6.13988658 244.831758,5.90548204 265.149338,6.17769376 C265.550095,6.9489603 265.958412,7.71266541 266.389414,8.47637051 C266.449905,8.57466919 266.563327,8.78638941 266.623819,8.89224953 C268.589792,12.3175803 270.586011,15.7277883 272.529301,19.1606805 C272.567108,19.221172 272.627599,19.3345936 272.665406,19.3875236 C276.431002,25.852552 280.181474,32.3251418 283.879017,38.8279773 C283.909263,38.8809074 283.977316,38.9867675 284.007561,39.047259 C284.680529,40.2041588 285.376181,41.3610586 286.064272,42.5255198 C286.124764,42.6238185 286.238185,42.8279773 286.298677,42.9338374 C287.243856,44.5973535 288.196597,46.2533081 289.1569,47.9092628 C289.194707,47.9621928 289.255198,48.0680529 289.285444,48.1285444 C290.245747,49.7769376 291.190926,51.4404537 292.143667,53.1039698 C292.204159,53.2022684 292.31758,53.3988658 292.378072,53.4971645 C293.338374,55.1153119 294.268431,56.7485822 295.190926,58.3818526 C295.251418,58.4801512 295.364839,58.68431 295.425331,58.7826087 C304.453686,74.3742911 313.459357,89.973535 322.457467,105.587902 C321.429112,110.117202 323.916824,114.623819 322.533081,119.175803 C321.693762,131.614367 316.99811,143.720227 309.255198,153.489603 C306.73724,156.219282 309.179584,160.007561 308.907372,163.243856 C306.192817,166.533081 302.699433,168.990548 299.402647,171.644612 C299.410208,174.124764 299.417769,176.604915 299.304348,179.092628 C296.362949,181.035917 292.990548,182.162571 290.003781,184.037807 C289.6862,185.043478 289.361059,186.056711 289.05104,187.077505 C286.654064,188.21172 284.090737,188.94518 281.693762,190.094518 C272.204159,187.372401 262.812854,184.340265 253.345936,181.534972 C244.536862,178.623819 235.516068,176.340265 226.797732,173.134216 L226.298677,172.241966 C226.253308,172.173913 226.177694,172.037807 226.139887,171.969754 L225.42155,170.752363 C225.345936,170.623819 225.194707,170.36673 225.119093,170.238185 C225.05104,170.124764 224.930057,169.905482 224.862004,169.79206 C224.325142,168.839319 223.833648,167.863894 223.395085,166.865784 L223.349716,166.767486 L223.296786,166.691871 C222.964083,166.162571 222.291115,165.096408 221.950851,164.567108 C221.913043,164.506616 221.837429,164.385633 221.799622,164.31758 L221.58034,163.969754 C221.451796,163.750473 221.187146,163.319471 221.058601,163.100189 C220.733459,162.548204 220.075614,161.444234 219.750473,160.89225 C219.667297,160.756144 219.508507,160.476371 219.425331,160.340265 L218.964083,159.553875 C218.903592,159.448015 218.782609,159.243856 218.722117,159.137996 L217.988658,157.875236 C217.958412,157.822306 217.890359,157.716446 217.860113,157.655955 L217.088847,156.332703 C217.020794,156.21172 216.884688,155.969754 216.816635,155.856333 C216.741021,155.720227 216.582231,155.440454 216.506616,155.304348 L215.879017,154.200378 C215.803403,154.071834 215.652174,153.799622 215.57656,153.671078 L215.092628,152.816635 C215.024575,152.703214 214.89603,152.476371 214.827977,152.362949 C214.533081,151.818526 213.935728,150.73724 213.63327,150.192817 C213.603025,150.132325 213.52741,150.003781 213.497164,149.943289 L213.293006,149.587902 C213.149338,149.376181 212.869565,148.952741 212.725898,148.741021 C211.977316,147.485822 211.274102,146.200378 210.601134,144.907372 C210.563327,144.846881 210.495274,144.718336 210.465028,144.657845 L210.268431,144.310019 C210.124764,144.10586 209.837429,143.697543 209.693762,143.500945 C209.361059,142.903592 208.695652,141.708885 208.362949,141.111531 C208.325142,141.05104 208.249527,140.922495 208.219282,140.854442 L208.015123,140.491493 C207.863894,140.241966 207.568998,139.750473 207.417769,139.500945 L206.767486,138.404537 C206.706994,138.298677 206.57845,138.086957 206.510397,137.973535 C206.223062,137.47448 205.640832,136.468809 205.345936,135.969754 C205.277883,135.856333 205.149338,135.621928 205.081285,135.500945 C204.567108,134.646503 204.075614,133.784499 203.591682,132.922495 C203.553875,132.854442 203.470699,132.718336 203.432892,132.650284 L202.714556,131.417769 C202.638941,131.296786 202.495274,131.05482 202.427221,130.926276 C202.359168,130.812854 202.230624,130.586011 202.162571,130.47259 L201.398866,129.141777 C201.361059,129.081285 201.293006,128.952741 201.255198,128.89225 L200.635161,127.780718 C200.582231,127.689981 200.483932,127.516068 200.431002,127.425331 C200.143667,126.918715 199.561437,125.913043 199.274102,125.406427 C199.213611,125.300567 199.092628,125.096408 199.032136,124.99811 C198.563327,124.219282 198.094518,123.432892 197.640832,122.654064 C176.672968,86.268431 155.674858,49.905482 134.661626,13.5425331 C133.345936,11.2741021 132.151229,8.91493384 130.540643,6.82797732 L130.502836,6.48771267 L130.47259,6.11720227 Z" id="Path" fill="#FCCD48" fill-rule="nonzero"></path>
            <g id="Group" transform="translate(84.688091, 6.049149)" fill="#089156" fill-rule="nonzero">
                <polygon id="Path" points="45.3913043 0.4536862 45.8147448 0.438563327 45.852552 0.778827977 45.3232514 0.862003781"></polygon>
                <path d="M45.852552,0.778827977 C47.463138,2.8657845 48.657845,5.22495274 49.973535,7.49338374 C70.9867675,43.8563327 91.9848771,80.2192817 112.952741,116.604915 C103.243856,133.512287 93.4593573,150.381853 83.7126654,167.274102 C82.4045369,159.183365 79.9621928,151.334594 78.4045369,143.289225 C75.9924386,134.661626 74.6540643,125.776938 72.1587902,117.164461 C69.2854442,103.251418 65.7844991,89.4593573 62.6465028,75.5992439 C57.8601134,55.3875236 53.2627599,35.1304348 48.710775,14.8582231 C47.6521739,10.1928166 46.2457467,5.57277883 45.852552,0.778827977 Z" id="Path"></path>
                <path d="M44.0604915,2.71455577 C44.0831758,2.67674858 44.1361059,2.59357278 44.1587902,2.5557656 C44.1361059,2.59357278 44.0831758,2.67674858 44.0604915,2.71455577 Z" id="Path"></path>
                <path d="M43.2136106,4.15122873 C43.2514178,4.09829868 43.3119093,3.98487713 43.342155,3.93194707 C43.3119093,3.98487713 43.2514178,4.09829868 43.2136106,4.15122873 Z" id="Path"></path>
                <path d="M42.1852552,5.98865784 C42.2533081,5.86011342 42.389414,5.61814745 42.4574669,5.49716446 C42.389414,5.61814745 42.2533081,5.86011342 42.1852552,5.98865784 Z" id="Path"></path>
                <path d="M41.9206049,6.44234405 C41.9810964,6.3289225 42.1172023,6.1020794 42.1852552,5.98865784 C42.1172023,6.1020794 41.9810964,6.3289225 41.9206049,6.44234405 Z" id="Path"></path>
                <path d="M41.0283554,7.96975425 C41.0586011,7.90926276 41.1190926,7.80340265 41.1493384,7.74291115 C41.1190926,7.80340265 41.0586011,7.90926276 41.0283554,7.96975425 Z" id="Path"></path>
                <path d="M40.2192817,9.70132325 C40.2570888,9.58034026 40.3251418,9.33837429 40.362949,9.2173913 C40.3251418,9.33837429 40.2570888,9.58034026 40.2192817,9.70132325 Z" id="Path"></path>
                <path d="M39.1606805,11.3875236 C39.4253308,10.9640832 39.9546314,10.1247637 40.2192817,9.70132325 C39.9546314,10.1247637 39.4253308,10.9640832 39.1606805,11.3875236 Z" id="Path"></path>
                <path d="M38.7523629,11.9773157 C38.8582231,11.8336484 39.0548204,11.5387524 39.1606805,11.3875236 C39.0548204,11.5387524 38.8582231,11.8336484 38.7523629,11.9773157 Z" id="Path"></path>
                <path d="M37.9584121,13.2551985 C38.0113422,13.1644612 38.1247637,12.9754253 38.1776938,12.8771267 C38.1247637,12.9754253 38.0113422,13.1644612 37.9584121,13.2551985 Z" id="Path"></path>
                <path d="M37.2022684,15.0018904 C37.2249527,14.8733459 37.2854442,14.6162571 37.31569,14.4877127 C37.2854442,14.6162571 37.2249527,14.8733459 37.2022684,15.0018904 Z" id="Path"></path>
                <path d="M36.0982987,16.6654064 C36.3780718,16.2495274 36.9224953,15.4177694 37.2022684,15.0018904 C36.9224953,15.4177694 36.3780718,16.2495274 36.0982987,16.6654064 Z" id="Path"></path>
                <path d="M35.7126654,17.2476371 C35.8109641,17.1039698 36.0075614,16.8090737 36.0982987,16.6654064 C36.0075614,16.8090737 35.8109641,17.1039698 35.7126654,17.2476371 Z" id="Path"></path>
                <path d="M34.9187146,18.5557656 C34.9640832,18.4725898 35.0548204,18.3137996 35.100189,18.2381853 C35.0548204,18.3137996 34.9640832,18.4725898 34.9187146,18.5557656 Z" id="Path"></path>
                <path d="M33.8903592,20.362949 C33.9659735,20.2344045 34.1172023,19.9697543 34.1928166,19.8336484 C34.1172023,19.9697543 33.9659735,20.2344045 33.8903592,20.362949 Z" id="Path"></path>
                <path d="M33.6181474,20.831758 C33.6862004,20.710775 33.8223062,20.4839319 33.8903592,20.362949 C33.8223062,20.4839319 33.6862004,20.710775 33.6181474,20.831758 Z" id="Path"></path>
                <path d="M32.7183365,22.3440454 C32.7561437,22.2911153 32.8241966,22.1776938 32.8544423,22.1172023 C32.8241966,22.1776938 32.7561437,22.2911153 32.7183365,22.3440454 Z" id="Path"></path>
                <path d="M31.8865784,23.7958412 C31.9168242,23.7429112 31.9773157,23.637051 32.0075614,23.5765595 C31.9773157,23.637051 31.9168242,23.7429112 31.8865784,23.7958412 Z" id="Path"></path>
                <path d="M30.8355388,25.6181474 C30.9111531,25.4971645 31.0548204,25.2400756 31.1304348,25.1190926 C31.0548204,25.2400756 30.9111531,25.4971645 30.8355388,25.6181474 Z" id="Path"></path>
                <path d="M30.5406427,26.1247637 C30.6162571,25.9962193 30.7599244,25.7466919 30.8355388,25.6181474 C30.7599244,25.7466919 30.6162571,25.9962193 30.5406427,26.1247637 Z" id="Path"></path>
                <path d="M29.6710775,27.6219282 C29.6937618,27.5689981 29.7542533,27.4706994 29.7844991,27.4177694 C29.7542533,27.4706994 29.6937618,27.5689981 29.6710775,27.6219282 Z" id="Path"></path>
                <path d="M28.8846881,29.3913043 C28.9149338,29.2627599 28.9829868,29.0056711 29.0132325,28.8771267 C28.9829868,29.0056711 28.9149338,29.2627599 28.8846881,29.3913043 Z" id="Path"></path>
                <path d="M27.7807183,31.0775047 C28.0529301,30.6540643 28.6049149,29.8071834 28.8846881,29.3913043 C28.6049149,29.8071834 28.0529301,30.6540643 27.7807183,31.0775047 Z" id="Path"></path>
                <path d="M27.4102079,31.6521739 C27.5009452,31.5085066 27.6824197,31.221172 27.7807183,31.0775047 C27.6824197,31.221172 27.5009452,31.5085066 27.4102079,31.6521739 Z" id="Path"></path>
                <path d="M26.4574669,33.36862 C26.5708885,33.1493384 26.7901701,32.7183365 26.8960302,32.4990548 C26.7901701,32.7183365 26.5708885,33.1493384 26.4574669,33.36862 Z" id="Path"></path>
                <path d="M25.6937618,34.7674858 C25.7920605,34.6162571 25.9810964,34.3062382 26.0718336,34.1550095 C25.9810964,34.3062382 25.7920605,34.6162571 25.6937618,34.7674858 Z" id="Path"></path>
                <path d="M25.2703214,35.3572779 C25.3761815,35.2060491 25.5879017,34.9187146 25.6937618,34.7674858 C25.5879017,34.9187146 25.3761815,35.2060491 25.2703214,35.3572779 Z" id="Path"></path>
                <path d="M24.3931947,36.7258979 C24.4914934,36.5746692 24.6805293,36.2570888 24.7712665,36.0982987 C24.6805293,36.2570888 24.4914934,36.5746692 24.3931947,36.7258979 Z" id="Path"></path>
                <path d="M23.4026465,38.68431 C23.4858223,38.510397 23.6597353,38.1550095 23.7429112,37.9810964 C23.6597353,38.1550095 23.4858223,38.510397 23.4026465,38.68431 Z" id="Path"></path>
                <path d="M22.6616257,40.0680529 C22.7523629,39.9168242 22.9413989,39.6143667 23.0321361,39.463138 C22.9413989,39.6143667 22.7523629,39.9168242 22.6616257,40.0680529 Z" id="Path"></path>
                <path d="M22.2381853,40.6427221 C22.3440454,40.4990548 22.5557656,40.2117202 22.6616257,40.0680529 C22.5557656,40.2117202 22.3440454,40.4990548 22.2381853,40.6427221 Z" id="Path"></path>
                <path d="M21.2325142,42.2759924 C21.3534972,42.0491493 21.610586,41.5879017 21.7391304,41.3534972 C21.610586,41.5879017 21.3534972,42.0491493 21.2325142,42.2759924 Z" id="Path"></path>
                <path d="M20.5444234,43.7429112 C20.6200378,43.5916824 20.7561437,43.2967864 20.831758,43.1455577 C20.7561437,43.2967864 20.6200378,43.5916824 20.5444234,43.7429112 Z" id="Path"></path>
                <path d="M19.5085066,45.4139887 C19.7655955,44.9905482 20.2873346,44.1587902 20.5444234,43.7429112 C20.2873346,44.1587902 19.7655955,44.9905482 19.5085066,45.4139887 Z" id="Path"></path>
                <path d="M19.0926276,46.0189036 C19.1984877,45.8676749 19.4026465,45.5652174 19.5085066,45.4139887 C19.4026465,45.5652174 19.1984877,45.8676749 19.0926276,46.0189036 Z" id="Path"></path>
                <path d="M18.3137996,47.3119093 C18.3667297,47.221172 18.4725898,47.0321361 18.5255198,46.9413989 C18.4725898,47.0321361 18.3667297,47.221172 18.3137996,47.3119093 Z" id="Path"></path>
                <path d="M17.4669187,49.0132325 C17.5122873,48.9073724 17.6181474,48.6956522 17.6710775,48.5897921 C17.6181474,48.6956522 17.5122873,48.9073724 17.4669187,49.0132325 Z" id="Path"></path>
                <path d="M16.3931947,50.8582231 C16.657845,50.3969754 17.194707,49.4744802 17.4669187,49.0132325 L17.5198488,49.8979206 C17.2400756,50.1398866 16.6729679,50.6238185 16.3931947,50.8582231 Z" id="Path"></path>
                <path d="M16.0982987,51.2741021 C16.173913,51.168242 16.3175803,50.9640832 16.3931947,50.8582231 C16.3175803,50.9640832 16.173913,51.168242 16.0982987,51.2741021 Z" id="Path"></path>
                <path d="M15.1304348,53.0359168 C15.2665406,52.7410208 15.5463138,52.1512287 15.6824197,51.8563327 C15.5463138,52.1512287 15.2665406,52.7410208 15.1304348,53.0359168 Z" id="Path"></path>
                <path d="M14.3440454,54.4272212 C14.4347826,54.2759924 14.6238185,53.973535 14.7221172,53.8223062 C14.6238185,53.973535 14.4347826,54.2759924 14.3440454,54.4272212 Z" id="Path"></path>
                <path d="M13.9281664,55.0170132 C14.0340265,54.8657845 14.2381853,54.5708885 14.3440454,54.4272212 C14.2381853,54.5708885 14.0340265,54.8657845 13.9281664,55.0170132 Z" id="Path"></path>
                <path d="M13.0586011,56.3705104 C13.1493384,56.2192817 13.3383743,55.9092628 13.436673,55.758034 C13.3383743,55.9092628 13.1493384,56.2192817 13.0586011,56.3705104 Z" id="Path"></path>
                <path d="M12.1512287,57.9584121 C12.1965974,57.8827977 12.2873346,57.7164461 12.3327032,57.6408318 C12.2873346,57.7164461 12.1965974,57.8827977 12.1512287,57.9584121 Z" id="Path"></path>
                <path d="M11.3572779,59.3875236 C11.4177694,59.2816635 11.5387524,59.0699433 11.5992439,58.9640832 C11.5387524,59.0699433 11.4177694,59.2816635 11.3572779,59.3875236 Z" id="Path"></path>
                <path d="M9.92816635,61.8298677 C9.98865784,61.731569 10.1096408,61.5198488 10.1701323,61.4139887 C10.1096408,61.5198488 9.98865784,61.731569 9.92816635,61.8298677 Z" id="Path"></path>
                <path d="M9.12665406,63.2287335 C9.19470699,63.1077505 9.33081285,62.8733459 9.39886578,62.7599244 C9.33081285,62.8733459 9.19470699,63.1077505 9.12665406,63.2287335 Z" id="Path"></path>
                <path d="M8.15122873,64.9300567 C8.23440454,64.7863894 8.40075614,64.4914934 8.49149338,64.3402647 C8.40075614,64.4914934 8.23440454,64.7863894 8.15122873,64.9300567 Z" id="Path"></path>
                <path d="M7.84877127,65.436673 C7.92438563,65.31569 8.07561437,65.0586011 8.15122873,64.9300567 C8.07561437,65.0586011 7.92438563,65.31569 7.84877127,65.436673 Z" id="Path"></path>
                <path d="M6.97164461,66.9187146 C7.00189036,66.8657845 7.06238185,66.7599244 7.0926276,66.7069943 C7.06238185,66.7599244 7.00189036,66.8657845 6.97164461,66.9187146 Z" id="Path"></path>
                <path d="M6.20037807,68.710775 C6.23062382,68.5746692 6.28355388,68.3100189 6.31379962,68.1814745 C6.28355388,68.3100189 6.23062382,68.5746692 6.20037807,68.710775 Z" id="Path"></path>
                <path d="M5.09640832,70.3516068 C5.36862004,69.9432892 5.92060491,69.1190926 6.20037807,68.710775 C5.92060491,69.1190926 5.36862004,69.9432892 5.09640832,70.3516068 Z" id="Path"></path>
                <path d="M4.70321361,70.9413989 C4.80151229,70.7977316 4.99810964,70.5028355 5.09640832,70.3516068 C4.99810964,70.5028355 4.80151229,70.7977316 4.70321361,70.9413989 Z" id="Path"></path>
                <path d="M3.93194707,72.1965974 C3.98487713,72.1058601 4.09073724,71.9243856 4.1436673,71.8336484 C4.09073724,71.9243856 3.98487713,72.1058601 3.93194707,72.1965974 Z" id="Path"></path>
                <path d="M2.88090737,74.0642722 C2.95652174,73.9281664 3.10775047,73.6635161 3.18336484,73.5274102 C3.10775047,73.6635161 2.95652174,73.9281664 2.88090737,74.0642722 Z" id="Path"></path>
                <path d="M2.60113422,74.5330813 C2.66918715,74.4196597 2.80529301,74.1776938 2.88090737,74.0642722 C2.80529301,74.1776938 2.66918715,74.4196597 2.60113422,74.5330813 Z" id="Path"></path>
                <path d="M1.72400756,76.0226843 C1.75425331,75.9697543 1.8147448,75.8638941 1.85255198,75.8109641 C1.8147448,75.8638941 1.75425331,75.9697543 1.72400756,76.0226843 Z" id="Path"></path>
                <path d="M0.884688091,77.4669187 C0.907372401,77.4215501 0.960302457,77.3383743 0.982986767,77.2930057 C0.960302457,77.3383743 0.907372401,77.4215501 0.884688091,77.4669187 Z" id="Path"></path>
                <path d="M81.5879017,170.775047 C81.7164461,170.563327 81.9886578,170.139887 82.1172023,169.935728 C81.9886578,170.139887 81.7164461,170.563327 81.5879017,170.775047 Z" id="Path"></path>
                <path d="M81.2551985,171.364839 C81.2930057,171.304348 81.3610586,171.175803 81.3913043,171.115312 C81.3610586,171.175803 81.2930057,171.304348 81.2551985,171.364839 Z" id="Path"></path>
                <path d="M79.8487713,173.920605 C79.9092628,173.822306 80.0226843,173.625709 80.0756144,173.52741 C80.0226843,173.625709 79.9092628,173.822306 79.8487713,173.920605 Z" id="Path"></path>
                <path d="M79.0548204,175.319471 C79.1153119,175.206049 79.2438563,174.986767 79.3119093,174.873346 C79.2438563,174.986767 79.1153119,175.206049 79.0548204,175.319471 Z" id="Path"></path>
                <path d="M78.2911153,176.657845 C78.3289225,176.597353 78.3969754,176.476371 78.4272212,176.415879 C78.3969754,176.476371 78.3289225,176.597353 78.2911153,176.657845 Z" id="Path"></path>
                <path d="M77.2400756,178.495274 C77.3081285,178.374291 77.4442344,178.132325 77.5122873,178.018904 C77.4442344,178.132325 77.3081285,178.374291 77.2400756,178.495274 Z" id="Path"></path>
                <path d="M76.9376181,179.00189 C77.0132325,178.873346 77.1644612,178.623819 77.2400756,178.495274 C77.1644612,178.623819 77.0132325,178.873346 76.9376181,179.00189 Z" id="Path"></path>
                <path d="M75.9319471,180.725898 C75.9924386,180.627599 76.1134216,180.415879 76.173913,180.31758 C76.1134216,180.415879 75.9924386,180.627599 75.9319471,180.725898 Z" id="Path"></path>
                <path d="M75.1455577,182.071834 C75.221172,181.935728 75.3875236,181.655955 75.463138,181.519849 C75.3875236,181.655955 75.221172,181.935728 75.1455577,182.071834 Z" id="Path"></path>
                <path d="M73.7240076,184.544423 C73.7769376,184.446125 73.8903592,184.257089 73.9432892,184.166352 C73.8903592,184.257089 73.7769376,184.446125 73.7240076,184.544423 Z" id="Path"></path>
                <path d="M72.9224953,185.897921 C73.0056711,185.754253 73.1720227,185.482042 73.2476371,185.338374 C73.1720227,185.482042 73.0056711,185.754253 72.9224953,185.897921 Z" id="Path"></path>
                <path d="M71.5236295,188.31758 C71.5916824,188.204159 71.7202268,187.969754 71.7882798,187.856333 C71.7202268,187.969754 71.5916824,188.204159 71.5236295,188.31758 Z" id="Path"></path>
                <path d="M70.7448015,189.708885 C70.7977316,189.618147 70.9035917,189.429112 70.9565217,189.338374 C70.9035917,189.429112 70.7977316,189.618147 70.7448015,189.708885 Z" id="Path"></path>
                <path d="M69.9206049,191.153119 C69.9810964,191.047259 70.1020794,190.835539 70.1625709,190.729679 C70.1020794,190.835539 69.9810964,191.047259 69.9206049,191.153119 Z" id="Path"></path>
                <path d="M68.4612476,193.63327 C68.5293006,193.512287 68.6654064,193.277883 68.7334594,193.164461 C68.6654064,193.277883 68.5293006,193.512287 68.4612476,193.63327 Z" id="Path"></path>
                <path d="M67.7277883,194.956522 C67.7731569,194.865784 67.8714556,194.691871 67.9243856,194.601134 C67.8714556,194.691871 67.7731569,194.865784 67.7277883,194.956522 Z" id="Path"></path>
                <path d="M66.8884688,196.408318 C66.9413989,196.31758 67.0548204,196.128544 67.1077505,196.030246 C67.0548204,196.128544 66.9413989,196.31758 66.8884688,196.408318 Z" id="Path"></path>
                <path d="M65.3913043,198.971645 C65.4517958,198.873346 65.5727788,198.676749 65.6257089,198.57845 C65.5727788,198.676749 65.4517958,198.873346 65.3913043,198.971645 Z" id="Path"></path>
                <path d="M64.6275992,200.257089 C64.7032136,200.120983 64.8620038,199.856333 64.9376181,199.720227 C64.8620038,199.856333 64.7032136,200.120983 64.6275992,200.257089 Z" id="Path"></path>
                <path d="M63.289225,202.593573 C63.3345936,202.510397 63.4404537,202.328922 63.4858223,202.245747 C63.4404537,202.328922 63.3345936,202.510397 63.289225,202.593573 Z" id="Path"></path>
                <path d="M62.4877127,204.022684 C62.5330813,203.939509 62.6238185,203.780718 62.6691871,203.697543 C62.6238185,203.780718 62.5330813,203.939509 62.4877127,204.022684 Z" id="Path"></path>
                <path d="M61.6408318,205.482042 C61.6937618,205.398866 61.7996219,205.217391 61.852552,205.134216 C61.7996219,205.217391 61.6937618,205.398866 61.6408318,205.482042 Z" id="Path"></path>
                <path d="M60.1361059,208 C60.2192817,207.863894 60.3705104,207.591682 60.4536862,207.463138 C60.3705104,207.591682 60.2192817,207.863894 60.1361059,208 Z" id="Path"></path>
                <path d="M59.463138,209.247637 C59.5160681,209.149338 59.6294896,208.937618 59.6899811,208.831758 C59.6294896,208.937618 59.5160681,209.149338 59.463138,209.247637 Z" id="Path"></path>
                <path d="M58.4272212,211.047259 C58.4877127,210.933837 58.6238185,210.706994 58.68431,210.593573 C58.6238185,210.706994 58.4877127,210.933837 58.4272212,211.047259 Z" id="Path"></path>
                <path d="M58.1776938,211.478261 C58.2381853,211.372401 58.3591682,211.153119 58.4272212,211.047259 C58.3591682,211.153119 58.2381853,211.372401 58.1776938,211.478261 Z" id="Path"></path>
            </g>
            <g id="Group" transform="translate(265.406427, 7.561437)" fill="#10985B" fill-rule="nonzero">
                <path d="M0.982986767,0.914933837 C1.04347826,1.01323251 1.15689981,1.22495274 1.2173913,1.33081285 C1.15689981,1.22495274 1.04347826,1.01323251 0.982986767,0.914933837 Z" id="Path"></path>
                <path d="M7.12287335,11.5992439 C7.16068053,11.6597353 7.22117202,11.7731569 7.25897921,11.826087 C7.22117202,11.7731569 7.16068053,11.6597353 7.12287335,11.5992439 Z" id="Path"></path>
                <path d="M18.4725898,31.2665406 C18.5028355,31.3194707 18.5708885,31.4253308 18.6011342,31.4858223 C18.5708885,31.4253308 18.5028355,31.3194707 18.4725898,31.2665406 Z" id="Path"></path>
                <path d="M20.657845,34.9640832 C20.7183365,35.0623819 20.831758,35.2665406 20.8922495,35.3724008 C20.831758,35.2665406 20.7183365,35.0623819 20.657845,34.9640832 Z" id="Path"></path>
                <path d="M23.7504726,40.3478261 C23.7882798,40.4007561 23.8487713,40.5066163 23.879017,40.5671078 C23.8487713,40.5066163 23.7882798,40.4007561 23.7504726,40.3478261 Z" id="Path"></path>
                <path d="M26.7372401,45.5425331 C26.7977316,45.6408318 26.9111531,45.8374291 26.9716446,45.9357278 C26.9111531,45.8374291 26.7977316,45.6408318 26.7372401,45.5425331 Z" id="Path"></path>
                <path d="M29.7844991,50.8204159 C29.8449905,50.9187146 29.9584121,51.1228733 30.0189036,51.221172 C29.9584121,51.1228733 29.8449905,50.9187146 29.7844991,50.8204159 Z" id="Path"></path>
            </g>
            <g id="Group" transform="translate(281.285444, 105.103970)" fill="#F9C941" fill-rule="nonzero">
                <path d="M41.1720227,0.483931947 C54.3213611,23.2665406 67.5538752,46.0113422 80.5973535,68.8620038 C80.657845,68.9603025 80.778828,69.1720227 80.8393195,69.2703214 C81.1417769,69.7693762 81.7466919,70.7599244 82.0415879,71.2514178 C82.1020794,71.3497164 82.2230624,71.5538752 82.2835539,71.6521739 L82.8884688,72.6880907 C82.926276,72.7561437 83.0018904,72.899811 83.047259,72.9678639 L83.8034026,74.2835539 C83.879017,74.4120983 84.0226843,74.6767486 84.0982987,74.805293 C84.1663516,74.9187146 84.3024575,75.1531191 84.3705104,75.2741021 L85.1115312,76.5595463 C85.1417769,76.6124764 85.2022684,76.7183365 85.2325142,76.7712665 L85.973535,78.0415879 C86.0037807,78.094518 86.0642722,78.1928166 86.094518,78.2457467 L86.8355388,79.5311909 C86.9111531,79.6597353 87.0548204,79.9092628 87.1304348,80.0378072 C87.1984877,80.1663516 87.342155,80.415879 87.4102079,80.536862 L88.173913,81.8827977 C88.2797732,82.147448 88.4914934,82.6616257 88.5973535,82.9187146 L88.8090737,83.3345936 L88.9073724,83.5538752 L89.073724,83.7731569 L89.5198488,84.4461248 C89.6786389,84.6956522 89.9886578,85.194707 90.147448,85.4442344 C90.2381853,85.5954631 90.4347826,85.8979206 90.5255198,86.0491493 L91.0245747,86.8431002 C91.1758034,87.1833648 91.4782609,87.8714556 91.6294896,88.2117202 L91.8563327,88.6200378 L91.9395085,88.778828 L92.0075614,88.8771267 C92.3402647,89.36862 92.9981096,90.3591682 93.3308129,90.8506616 C93.4139887,90.9867675 93.5803403,91.2589792 93.6710775,91.3950851 L94.1247637,92.1512287 C94.1928166,92.2722117 94.3289225,92.5066163 94.3969754,92.6200378 L95.1606805,93.9584121 C95.2287335,94.0793951 95.3648393,94.3213611 95.4328922,94.442344 C95.5009452,94.563327 95.637051,94.7977316 95.705104,94.9187146 L96.4612476,96.2117202 C96.4914934,96.2722117 96.5595463,96.3856333 96.5973535,96.4385633 L97.2854442,97.6483932 C97.3308129,97.7240076 97.4215501,97.8827977 97.4669187,97.9584121 L98.1625709,99.1758034 C98.2457467,99.3119093 98.4045369,99.5916824 98.4877127,99.7277883 C98.5557656,99.8487713 98.6994329,100.090737 98.7674858,100.21172 C99.3270321,101.141777 99.8638941,102.086957 100.362949,103.05482 C100.438563,103.213611 100.589792,103.531191 100.657845,103.689981 L101.005671,104.476371 C101.096408,104.627599 101.277883,104.937618 101.361059,105.088847 C101.47448,105.240076 101.693762,105.52741 101.807183,105.671078 L102.328922,106.412098 C102.41966,106.555766 102.601134,106.8431 102.699433,106.994329 L103.463138,108.31758 C103.531191,108.438563 103.667297,108.680529 103.73535,108.801512 C103.803403,108.922495 103.939509,109.1569 104.015123,109.277883 L104.771267,110.57845 C104.801512,110.638941 104.862004,110.744802 104.89225,110.797732 L105.610586,112.05293 C105.640832,112.10586 105.701323,112.204159 105.731569,112.257089 L106.465028,113.534972 C106.540643,113.663516 106.691871,113.920605 106.767486,114.056711 C106.8431,114.185255 106.994329,114.442344 107.062382,114.570888 L107.818526,115.871456 C107.848771,115.924386 107.901701,116.030246 107.931947,116.083176 L108.733459,117.58034 L108.725898,118.26087 C89.8071834,112.824197 71.1909263,106.374291 52.2192817,101.134216 C35.0018904,95.5765595 17.6257089,90.5179584 0.40831758,84.9905482 C2.80529301,83.8412098 5.36862004,83.1077505 7.76559546,81.973535 C8.07561437,80.952741 8.40075614,79.9395085 8.71833648,78.9338374 C11.705104,77.0586011 15.0775047,75.9319471 18.0189036,73.9886578 C18.1323251,71.5009452 18.1247637,69.020794 18.1172023,66.5406427 C21.4139887,63.8865784 24.9073724,61.4291115 27.6219282,58.1398866 C27.8941399,54.9035917 25.4517958,51.1153119 27.9697543,48.3856333 C35.7126654,38.6162571 40.4083176,26.510397 41.2476371,14.0718336 C42.63138,9.51984877 40.1436673,5.01323251 41.1720227,0.483931947 Z" id="Path"></path>
                <polygon id="Path" points="108.725898 118.26087 109.119093 118.275992 109.338374 118.850662 108.89225 118.880907"></polygon>
            </g>
            <g id="Group" transform="translate(198.109641, 124.763705)" fill="#E3B73A" fill-rule="nonzero">
                <path d="M0.922495274,0.234404537 C0.982986767,0.332703214 1.10396975,0.536862004 1.16446125,0.642722117 C1.10396975,0.536862004 0.982986767,0.332703214 0.922495274,0.234404537 Z" id="Path"></path>
                <path d="M2.32136106,2.66162571 C2.37429112,2.75236295 2.47258979,2.92627599 2.52551985,3.01701323 C2.47258979,2.92627599 2.37429112,2.75236295 2.32136106,2.66162571 Z" id="Path"></path>
                <path d="M3.14555766,4.12854442 C3.18336484,4.18903592 3.25141777,4.31758034 3.28922495,4.37807183 C3.25141777,4.31758034 3.18336484,4.18903592 3.14555766,4.12854442 Z" id="Path"></path>
                <path d="M4.05293006,5.70888469 C4.12098299,5.82230624 4.24952741,6.04914934 4.31758034,6.16257089 C4.24952741,6.04914934 4.12098299,5.82230624 4.05293006,5.70888469 Z" id="Path"></path>
                <path d="M4.31758034,6.16257089 C4.38563327,6.29111531 4.52930057,6.53308129 4.60491493,6.65406427 C4.52930057,6.53308129 4.38563327,6.29111531 4.31758034,6.16257089 Z" id="Path"></path>
                <path d="M5.32325142,7.88657845 C5.3610586,7.95463138 5.4442344,8.09073724 5.48204159,8.15879017 C5.4442344,8.09073724 5.3610586,7.95463138 5.32325142,7.88657845 Z" id="Path"></path>
                <path d="M6.97164461,10.7372401 C7.03969754,10.8582231 7.16824197,11.0926276 7.2362949,11.2060491 C7.16824197,11.0926276 7.03969754,10.8582231 6.97164461,10.7372401 Z" id="Path"></path>
                <path d="M8.40075614,13.2098299 C8.46880907,13.3232514 8.5973535,13.5349716 8.65784499,13.6408318 C8.5973535,13.5349716 8.46880907,13.3232514 8.40075614,13.2098299 Z" id="Path"></path>
                <path d="M9.30812854,14.7372401 C9.45935728,14.9867675 9.75425331,15.4782609 9.90548204,15.7277883 C9.75425331,15.4782609 9.45935728,14.9867675 9.30812854,14.7372401 Z" id="Path"></path>
                <path d="M10.1096408,16.0907372 C10.1398866,16.1587902 10.2155009,16.2873346 10.2533081,16.3478261 C10.2155009,16.2873346 10.1398866,16.1587902 10.1096408,16.0907372 Z" id="Path"></path>
                <path d="M11.584121,18.7372401 C11.7277883,18.9338374 12.0151229,19.342155 12.1587902,19.5463138 C12.0151229,19.342155 11.7277883,18.9338374 11.584121,18.7372401 Z" id="Path"></path>
                <path d="M12.3553875,19.8941399 C12.3856333,19.9546314 12.4536862,20.0831758 12.4914934,20.1436673 C12.4536862,20.0831758 12.3856333,19.9546314 12.3553875,19.8941399 Z" id="Path"></path>
                <path d="M14.6162571,23.9773157 C14.7599244,24.1890359 15.0396975,24.6124764 15.1833648,24.8241966 C15.0396975,24.6124764 14.7599244,24.1890359 14.6162571,23.9773157 Z" id="Path"></path>
                <path d="M15.3875236,25.1795841 C15.4177694,25.2400756 15.4933837,25.36862 15.5236295,25.4291115 C15.4933837,25.36862 15.4177694,25.2400756 15.3875236,25.1795841 Z" id="Path"></path>
                <path d="M16.7183365,27.5992439 C16.7863894,27.7126654 16.9149338,27.9395085 16.9829868,28.0529301 C16.9149338,27.9395085 16.7863894,27.7126654 16.7183365,27.5992439 Z" id="Path"></path>
                <path d="M17.4669187,28.9073724 C17.5425331,29.0359168 17.6937618,29.3081285 17.7693762,29.436673 C17.6937618,29.3081285 17.5425331,29.0359168 17.4669187,28.9073724 Z" id="Path"></path>
                <path d="M18.3969754,30.5406427 C18.4725898,30.6767486 18.63138,30.9565217 18.7069943,31.0926276 C18.63138,30.9565217 18.4725898,30.6767486 18.3969754,30.5406427 Z" id="Path"></path>
                <path d="M18.7069943,31.0926276 C18.7750473,31.2060491 18.9111531,31.4480151 18.979206,31.5689981 C18.9111531,31.4480151 18.7750473,31.2060491 18.7069943,31.0926276 Z" id="Path"></path>
                <path d="M19.7504726,32.8922495 C19.7807183,32.952741 19.8487713,33.0586011 19.879017,33.1115312 C19.8487713,33.0586011 19.7807183,32.952741 19.7504726,32.8922495 Z" id="Path"></path>
                <path d="M20.6124764,34.3742911 C20.6729679,34.4801512 20.7939509,34.68431 20.8544423,34.7901701 C20.7939509,34.68431 20.6729679,34.4801512 20.6124764,34.3742911 Z" id="Path"></path>
                <path d="M21.31569,35.5765595 C21.3988658,35.7126654 21.557656,35.9924386 21.6408318,36.1285444 C21.557656,35.9924386 21.3988658,35.7126654 21.31569,35.5765595 Z" id="Path"></path>
                <path d="M22.9489603,38.3364839 C23.0775047,38.5557656 23.342155,38.9867675 23.4706994,39.2060491 C23.342155,38.9867675 23.0775047,38.5557656 22.9489603,38.3364839 Z" id="Path"></path>
                <path d="M23.6899811,39.5538752 C23.7277883,39.6219282 23.8034026,39.7429112 23.8412098,39.8034026 C23.8034026,39.7429112 23.7277883,39.6219282 23.6899811,39.5538752 Z" id="Path"></path>
                <path d="M25.1871456,41.9281664 L25.2400756,42.0037807 L25.2854442,42.1020794 C25.2627599,42.0567108 25.2098299,41.973535 25.1871456,41.9281664 Z" id="Path"></path>
                <path d="M26.7523629,45.0283554 C26.8204159,45.1417769 26.9413989,45.3610586 27.0094518,45.4744802 C26.9413989,45.3610586 26.8204159,45.1417769 26.7523629,45.0283554 Z" id="Path"></path>
                <path d="M27.0094518,45.4744802 C27.0850662,45.6030246 27.2362949,45.8601134 27.3119093,45.9886578 C27.2362949,45.8601134 27.0850662,45.6030246 27.0094518,45.4744802 Z" id="Path"></path>
                <path d="M28.0302457,47.2060491 C28.0680529,47.2741021 28.1436673,47.4102079 28.1890359,47.4782609 C28.1436673,47.4102079 28.0680529,47.2741021 28.0302457,47.2060491 Z" id="Path"></path>
                <path d="M28.6880907,48.3705104 C37.4064272,51.5765595 46.4272212,53.8601134 55.2362949,56.7712665 C64.7032136,59.5765595 74.094518,62.6086957 83.584121,65.3308129 C100.801512,70.8582231 118.177694,75.9168242 135.395085,81.4744802 C135.137996,85.1568998 135.863894,88.9300567 134.94896,92.5444234 C134.245747,96.0604915 130.041588,96.6124764 128.310019,99.4177694 C105.043478,99.4253308 81.7844991,99.4933837 58.5255198,99.3950851 L58.026465,99.3572779 C48.415879,82.268431 38.4196597,65.3913043 28.6880907,48.3705104 Z" id="Path"></path>
            </g>
            <g id="Group" transform="translate(325.897921, 173.156900)" fill="#E8B835" fill-rule="nonzero">
                <path d="M35.9848771,0.809073724 C36.0453686,0.907372401 36.1663516,1.11909263 36.2268431,1.2173913 C36.1663516,1.11909263 36.0453686,0.907372401 35.9848771,0.809073724 Z" id="Path"></path>
                <path d="M37.4291115,3.19848771 C37.489603,3.29678639 37.610586,3.50094518 37.6710775,3.59924386 C37.610586,3.50094518 37.489603,3.29678639 37.4291115,3.19848771 Z" id="Path"></path>
                <path d="M38.2759924,4.63516068 C38.3137996,4.70321361 38.389414,4.84688091 38.4347826,4.91493384 C38.389414,4.84688091 38.3137996,4.70321361 38.2759924,4.63516068 Z" id="Path"></path>
                <path d="M39.1909263,6.23062382 C39.2665406,6.35916824 39.4102079,6.62381853 39.4858223,6.75236295 C39.4102079,6.62381853 39.2665406,6.35916824 39.1909263,6.23062382 Z" id="Path"></path>
                <path d="M39.4858223,6.75236295 C39.5538752,6.8657845 39.6899811,7.10018904 39.758034,7.22117202 C39.6899811,7.10018904 39.5538752,6.8657845 39.4858223,6.75236295 Z" id="Path"></path>
                <path d="M40.4990548,8.50661626 C40.5293006,8.55954631 40.5897921,8.66540643 40.6200378,8.71833648 C40.5897921,8.66540643 40.5293006,8.55954631 40.4990548,8.50661626 Z" id="Path"></path>
                <path d="M41.3610586,9.98865784 C41.3913043,10.0415879 41.4517958,10.1398866 41.4820416,10.1928166 C41.4517958,10.1398866 41.3913043,10.0415879 41.3610586,9.98865784 Z" id="Path"></path>
                <path d="M42.2230624,11.4782609 C42.2986767,11.6068053 42.442344,11.8563327 42.5179584,11.9848771 C42.442344,11.8563327 42.2986767,11.6068053 42.2230624,11.4782609 Z" id="Path"></path>
                <path d="M42.5179584,11.9848771 C42.5860113,12.1134216 42.7296786,12.362949 42.7977316,12.4839319 C42.7296786,12.362949 42.5860113,12.1134216 42.5179584,11.9848771 Z" id="Path"></path>
                <path d="M43.5614367,13.8298677 C43.6672968,14.094518 43.879017,14.6086957 43.9848771,14.8657845 C43.879017,14.6086957 43.6672968,14.094518 43.5614367,13.8298677 Z" id="Path"></path>
                <path d="M44.1965974,15.2816635 C44.2646503,15.3950851 44.3931947,15.6143667 44.4612476,15.7202268 L44.294896,15.5009452 L44.1965974,15.2816635 Z" id="Path"></path>
                <path d="M44.9073724,16.3931947 C45.0661626,16.6427221 45.3761815,17.1417769 45.5349716,17.3913043 C45.3761815,17.1417769 45.0661626,16.6427221 44.9073724,16.3931947 Z" id="Path"></path>
                <path d="M45.5349716,17.3913043 C45.6257089,17.5425331 45.8223062,17.8449905 45.9130435,17.9962193 C45.8223062,17.8449905 45.6257089,17.5425331 45.5349716,17.3913043 Z" id="Path"></path>
                <path d="M46.4120983,18.7901701 C46.563327,19.1304348 46.8657845,19.8185255 47.0170132,20.1587902 C46.8657845,19.8185255 46.563327,19.1304348 46.4120983,18.7901701 Z" id="Path"></path>
                <path d="M47.2438563,20.5671078 C47.2816635,20.6351607 47.3572779,20.7637051 47.3950851,20.8241966 L47.3270321,20.7258979 L47.2438563,20.5671078 Z" id="Path"></path>
                <path d="M48.7183365,22.7977316 C48.8015123,22.9338374 48.9678639,23.2060491 49.0586011,23.342155 C48.9678639,23.2060491 48.8015123,22.9338374 48.7183365,22.7977316 Z" id="Path"></path>
                <path d="M49.5122873,24.0982987 C49.5803403,24.2192817 49.7164461,24.4536862 49.7844991,24.5671078 C49.7164461,24.4536862 49.5803403,24.2192817 49.5122873,24.0982987 Z" id="Path"></path>
                <path d="M50.5482042,25.905482 C50.6162571,26.026465 50.7523629,26.268431 50.8204159,26.389414 C50.7523629,26.268431 50.6162571,26.026465 50.5482042,25.905482 Z" id="Path"></path>
                <path d="M50.8204159,26.389414 C50.8884688,26.510397 51.0245747,26.7448015 51.0926276,26.8657845 C51.0245747,26.7448015 50.8884688,26.510397 50.8204159,26.389414 Z" id="Path"></path>
                <path d="M51.8487713,28.1587902 C51.879017,28.2192817 51.9470699,28.3327032 51.9848771,28.3856333 C51.9470699,28.3327032 51.879017,28.2192817 51.8487713,28.1587902 Z" id="Path"></path>
                <path d="M52.6729679,29.5954631 C52.7183365,29.6710775 52.8090737,29.8298677 52.8544423,29.905482 C52.8090737,29.8298677 52.7183365,29.6710775 52.6729679,29.5954631 Z" id="Path"></path>
                <path d="M53.5500945,31.1228733 C53.6332703,31.2589792 53.7920605,31.5387524 53.8752363,31.6748582 C53.7920605,31.5387524 53.6332703,31.2589792 53.5500945,31.1228733 Z" id="Path"></path>
                <path d="M53.8752363,31.6748582 C53.9432892,31.7958412 54.0869565,32.0378072 54.1550095,32.1587902 C54.0869565,32.0378072 53.9432892,31.7958412 53.8752363,31.6748582 Z" id="Path"></path>
                <path d="M7.60680529,33.0812854 C26.5784499,38.3213611 45.194707,44.7712665 64.1134216,50.2079395 L64.2797732,50.8279773 C43.0396975,51.3119093 21.7693762,50.9111531 0.52173913,51.0245747 C2.25330813,48.2192817 6.45746692,47.6672968 7.16068053,44.1512287 C8.07561437,40.536862 7.34971645,36.7637051 7.60680529,33.0812854 Z" id="Path"></path>
                <path d="M55.7504726,35.0018904 C55.826087,35.1606805 55.9773157,35.4782609 56.0453686,35.637051 C55.9773157,35.4782609 55.826087,35.1606805 55.7504726,35.0018904 Z" id="Path"></path>
                <path d="M56.3931947,36.4234405 C56.4839319,36.5746692 56.6654064,36.8846881 56.7485822,37.0359168 C56.6654064,36.8846881 56.4839319,36.5746692 56.3931947,36.4234405 Z" id="Path"></path>
                <path d="M56.7485822,37.0359168 C56.8620038,37.1871456 57.0812854,37.4744802 57.194707,37.6181474 C57.0812854,37.4744802 56.8620038,37.1871456 56.7485822,37.0359168 Z" id="Path"></path>
                <path d="M57.7164461,38.3591682 C57.8071834,38.5028355 57.9886578,38.7901701 58.0869565,38.9413989 C57.9886578,38.7901701 57.8071834,38.5028355 57.7164461,38.3591682 Z" id="Path"></path>
                <path d="M58.8506616,40.2646503 C58.9187146,40.3856333 59.0548204,40.6275992 59.1228733,40.7485822 C59.0548204,40.6275992 58.9187146,40.3856333 58.8506616,40.2646503 Z" id="Path"></path>
                <path d="M59.1228733,40.7485822 C59.1909263,40.8695652 59.3270321,41.1039698 59.4026465,41.2249527 C59.3270321,41.1039698 59.1909263,40.8695652 59.1228733,40.7485822 Z" id="Path"></path>
                <path d="M60.1587902,42.5255198 C60.1890359,42.5860113 60.2495274,42.6918715 60.2797732,42.7448015 C60.2495274,42.6918715 60.1890359,42.5860113 60.1587902,42.5255198 Z" id="Path"></path>
                <path d="M60.9981096,44 C61.0283554,44.0529301 61.0888469,44.1512287 61.1190926,44.2041588 C61.0888469,44.1512287 61.0283554,44.0529301 60.9981096,44 Z" id="Path"></path>
                <path d="M61.852552,45.4820416 C61.9281664,45.610586 62.0793951,45.8676749 62.1550095,46.0037807 C62.0793951,45.8676749 61.9281664,45.610586 61.852552,45.4820416 Z" id="Path"></path>
                <path d="M62.1550095,46.0037807 C62.2306238,46.1323251 62.3818526,46.389414 62.4499055,46.5179584 C62.3818526,46.389414 62.2306238,46.1323251 62.1550095,46.0037807 Z" id="Path"></path>
                <path d="M63.2060491,47.8185255 C63.2362949,47.8714556 63.289225,47.9773157 63.3194707,48.0302457 C63.289225,47.9773157 63.2362949,47.8714556 63.2060491,47.8185255 Z" id="Path"></path>
                <path d="M64.120983,49.5274102 C64.2192817,49.7013233 64.4083176,50.0491493 64.5066163,50.2230624 L64.1134216,50.2079395 L64.120983,49.5274102 Z" id="Path"></path>
            </g>
            <g id="Group" transform="translate(71.077505, 223.818526)" fill="#296AD9" fill-rule="nonzero">
                <path d="M44.6805293,40.1285444 C52.4763705,26.8355388 59.8865784,13.2930057 67.9395085,0.15879017 C106.979206,0.302457467 146.026465,-0.0604914934 185.058601,0.302457467 L185.557656,0.34026465 C165.814745,0.975425331 146.018904,0.173913043 126.275992,0.672967864 C122.510397,3.10018904 120,7.03213611 116.393195,9.67863894 C113.043478,12.120983 110.57845,15.5236295 107.379962,18.1323251 C102.89603,21.436673 99.5614367,26.0189036 95.0094518,29.2551985 C89.7466919,34.8279773 83.6748582,39.5236295 78.3667297,45.0661626 C74.389414,48.120983 71.0623819,51.8941399 67.3572779,55.2589792 C63.2816635,58.2155009 60.1587902,62.2230624 56.3478261,65.489603 C56.2495274,65.5727788 56.0604915,65.7391304 55.9621928,65.8298677 C55.758034,65.9886578 55.3572779,66.3213611 55.1531191,66.4801512 C55.0548204,66.563327 54.8733459,66.7145558 54.7750473,66.7977316 C51.7731569,69.1190926 49.4744802,72.1814745 46.5255198,74.563327 C46.4272212,74.6465028 46.2381853,74.805293 46.147448,74.8809074 C46.0491493,74.9640832 45.8601134,75.1228733 45.7618147,75.1984877 C41.4593573,78.7296786 38.0113422,83.1984877 33.4971645,86.4877127 C28.952741,90.9943289 23.826087,94.8657845 19.5085066,99.6143667 C13.1266541,104.862004 7.60680529,111.05482 1.02835539,116.083176 C2.66162571,112.521739 4.8241966,109.255198 6.7221172,105.844991 C19.3799622,83.9395085 32.0226843,62.0340265 44.6805293,40.1285444 Z" id="Path"></path>
                <path d="M0.695652174,116.567108 C0.778827977,116.446125 0.945179584,116.204159 1.02835539,116.083176 L1.00567108,116.574669 L0.695652174,116.567108 Z" id="Path"></path>
            </g>
            <path d="M256.635161,224.15879 C279.89414,224.257089 303.153119,224.189036 326.41966,224.181474 C347.667297,224.068053 368.937618,224.468809 390.177694,223.984877 L390.623819,223.954631 L390.926276,224.037807 L390.926276,224.098299 C368.499055,262.865784 346.139887,301.678639 323.712665,340.453686 C239.833648,340.431002 155.954631,340.529301 72.0831758,340.393195 L72.1058601,339.901701 C78.68431,334.873346 84.2041588,328.680529 90.5860113,323.432892 C94.9035917,318.68431 100.030246,314.812854 104.574669,310.306238 C109.088847,307.017013 112.536862,302.548204 116.839319,299.017013 C116.937618,298.941399 117.126654,298.782609 117.224953,298.699433 C117.31569,298.623819 117.504726,298.465028 117.603025,298.381853 C120.551985,296 122.850662,292.937618 125.852552,290.616257 C125.950851,290.533081 126.132325,290.381853 126.230624,290.298677 C126.434783,290.139887 126.835539,289.807183 127.039698,289.648393 C127.137996,289.557656 127.327032,289.391304 127.425331,289.308129 C131.236295,286.041588 134.359168,282.034026 138.434783,279.077505 C142.139887,275.712665 145.466919,271.939509 149.444234,268.884688 C154.752363,263.342155 160.824197,258.646503 166.086957,253.073724 C170.638941,249.837429 173.973535,245.255198 178.457467,241.950851 C181.655955,239.342155 184.120983,235.939509 187.470699,233.497164 C191.077505,230.850662 193.587902,226.918715 197.353497,224.491493 C217.096408,223.992439 236.89225,224.793951 256.635161,224.15879 Z" id="Path" fill="#2A71E9" fill-rule="nonzero"></path>
            <g id="Group" transform="translate(116.446125, 288.846881)" fill="#286EE6" fill-rule="nonzero">
                <path d="M10.5935728,0.801512287 C10.6918715,0.710775047 10.8809074,0.54442344 10.979206,0.461247637 C10.8809074,0.54442344 10.6918715,0.710775047 10.5935728,0.801512287 Z" id="Path"></path>
                <path d="M9.78449905,1.45179584 C9.98865784,1.29300567 10.389414,0.960302457 10.5935728,0.801512287 C10.389414,0.960302457 9.98865784,1.29300567 9.78449905,1.45179584 Z" id="Path"></path>
                <path d="M9.40642722,1.76937618 C9.5047259,1.68620038 9.68620038,1.53497164 9.78449905,1.45179584 C9.68620038,1.53497164 9.5047259,1.68620038 9.40642722,1.76937618 Z" id="Path"></path>
                <path d="M0.778827977,9.85255198 C0.869565217,9.77693762 1.05860113,9.61814745 1.15689981,9.53497164 C1.05860113,9.61814745 0.869565217,9.77693762 0.778827977,9.85255198 Z" id="Path"></path>
                <path d="M0.393194707,10.1701323 C0.491493384,10.094518 0.680529301,9.93572779 0.778827977,9.85255198 C0.680529301,9.93572779 0.491493384,10.094518 0.393194707,10.1701323 Z" id="Path"></path>
            </g>
            <rect id="Rectangle" fill="#FFFFFF" style="mix-blend-mode: color;" x="0" y="0" width="400" height="348.582231"></rect>
        </g>
    </g>
</svg>