<?xml version="1.0" encoding="UTF-8"?>
<svg width="268px" height="54px" viewBox="0 0 268 54" version="1.1" xmlns="http://www.w3.org/2000/svg" xmlns:xlink="http://www.w3.org/1999/xlink">
    <!-- Generator: Sketch 52.5 (67469) - http://www.bohemiancoding.com/sketch -->
    <title>logo-content-camel-color-238</title>
    <desc>Created with Sketch.</desc>
    <defs>
        <polygon id="path-1" points="0 0 50.1864783 0 50.1864783 53.5720333 0 53.5720333"></polygon>
    </defs>
    <g id="logo-content-camel-color-238" stroke="none" stroke-width="1" fill="none" fill-rule="evenodd">
        <g transform="translate(0.000000, 0.000000)">
            <g id="Group-3">
                <mask id="mask-2" fill="white">
                    <use xlink:href="#path-1"></use>
                </mask>
                <g id="Clip-2"></g>
                <path d="M8.1964217,44.6044874 C7.46508025,43.6029716 3.97892487,38.1482297 7.2061816,29.0908832 C7.74807349,27.5681375 8.36697355,26.0223896 8.96461368,24.5272466 C9.55233252,23.0587861 10.2165871,21.396647 10.8024162,19.7519897 C11.3735995,19.8154758 11.92683,19.8476789 12.4484069,19.8476789 C14.9296764,19.8476789 17.2772447,19.2247793 19.4254421,17.9955417 L19.5015053,17.9499973 L19.5005605,17.947237 C19.9134755,17.6771912 20.1667048,17.2194474 20.1667048,16.7331809 C20.1667048,15.9262637 19.4925289,15.2697809 18.6633918,15.2697809 C18.4375642,15.2697809 18.2131538,15.3208458 18.0085861,15.4179151 L18.0062239,15.4119345 L17.901814,15.4712802 C15.5400725,16.8233495 12.893448,17.2327887 10.1230434,16.6894767 C8.5077615,16.2993594 7.40035559,15.6502373 7.16035465,14.9523505 C7.02618089,14.5663736 7.22413443,14.2480231 7.35405619,14.0920682 C7.79342799,13.5643977 8.7009906,13.086412 9.58209642,12.6226876 C10.8061957,11.978626 12.0718699,11.3134024 12.6506124,10.2092967 C14.2337682,9.49576847 19.6465453,7.25351395 25.0933383,7.23925259 C30.5410761,7.25351395 35.9529084,9.49576847 37.5355917,10.2092967 C38.115279,11.3134024 39.3804808,11.9790861 40.6088321,12.6245278 C41.4861584,13.086872 42.393721,13.5648578 42.8326203,14.0920682 C42.9625421,14.2480231 43.1604956,14.5672937 43.0267943,14.9523505 C42.7863209,15.6502373 41.6784426,16.2993594 40.0678851,16.6885566 C37.2842521,17.2350889 34.646604,16.8233495 32.28439,15.4712802 L32.1799802,15.4133146 L32.1780904,15.4179151 C31.9735227,15.3208458 31.7495848,15.2697809 31.5228123,15.2697809 C30.6941476,15.2697809 30.0199717,15.9262637 30.0199717,16.7331809 C30.0199717,17.2194474 30.2732011,17.6767312 30.6861161,17.947237 L30.6842263,17.9513774 L30.7617069,17.9955417 C32.9094319,19.2247793 35.2565277,19.8476789 37.7382697,19.8476789 C38.2598465,19.8476789 38.813077,19.8154758 39.3847328,19.7519897 C39.9672548,21.3892863 40.6329267,23.0551057 41.2215904,24.5272466 C41.8215928,26.0283702 42.4423826,27.5800986 42.9804949,29.0908832 C46.2077517,38.1482297 42.7215963,43.6029716 41.9897824,44.6044874 C39.0677237,48.6031899 33.3828195,50.6356644 25.0938107,50.6448653 L25.0933383,50.6448653 C16.8043294,50.6356644 11.1194253,48.6031899 8.1964217,44.6044874 Z M44.7285333,6.80405095 C43.4690008,7.5916463 41.8693095,7.80188642 40.3225318,7.38232628 C40.5762335,5.83749848 41.4370243,4.5070512 42.6951395,3.72083598 C43.5195522,3.20558668 44.5008158,2.93278058 45.5331034,2.93278058 C46.0579873,2.93278058 46.5852335,3.00362736 47.1016134,3.1430207 C46.8479116,4.6869284 45.986176,6.01783573 44.7285333,6.80405095 Z M3.08553554,3.1430207 C3.60097063,3.00362736 4.12868923,2.93278058 4.65310073,2.93278058 C5.68586069,2.93278058 6.66712437,3.20558668 7.49200949,3.72083598 C8.74917977,4.5070512 9.61044298,5.83795853 9.86461721,7.38232628 C8.31689461,7.80142637 6.71814819,7.59210635 5.4586157,6.80405095 C4.20050054,6.01737569 3.33923732,4.68646836 3.08553554,3.1430207 Z M50.1866649,2.15070576 L50.1847751,1.21497624 L49.3112284,0.823478783 C48.1064993,0.284767244 46.7940532,0 45.5160954,0 C43.9239632,0 42.3866343,0.435201636 41.0708812,1.25776033 C39.0866214,2.49895908 37.7373248,4.56547679 37.3537012,6.94206416 C36.5703911,6.62969427 35.7691281,6.33848641 34.9711722,6.07534124 C31.4420245,4.91188993 28.1188619,4.31843315 25.0928658,4.31199253 C22.0678146,4.31843315 18.744652,4.91188993 15.2155043,6.07534124 C14.4203831,6.33710628 13.6195925,6.62877418 12.8329753,6.94206416 C12.4493517,4.56501674 11.1000551,2.49895908 9.11626782,1.25776033 C7.80004219,0.435201636 6.26271334,0 4.67058112,0 C3.39215091,0 2.07970483,0.284767244 0.875448146,0.823478783 L0.00190141741,1.21497624 L1.16462332e-05,2.15070576 C-0.00471278172,5.10280819 1.42820622,7.76278268 3.83388493,9.2671266 C4.88554259,9.92498954 6.09641347,10.3399492 7.35547352,10.4756622 C6.49279298,10.954108 5.63719908,11.5061608 5.01829902,12.2491319 C4.14947672,13.2925117 3.88490875,14.6519418 4.31010727,15.8853198 C4.64034478,16.8412912 5.52523013,18.1625376 7.86712907,19.0605435 C7.33232383,20.5428054 6.73846323,22.0278274 6.16350035,23.4645449 C5.5535767,24.9909709 4.92192069,26.5684618 4.36585552,28.1316914 C3.9538854,29.2859418 2.98490523,32.3613361 2.87435361,35.977282 C2.74962871,40.0482115 3.71624667,43.5215438 5.74727825,46.3011297 C9.25280379,51.0984687 15.7271599,53.5445227 24.9898733,53.5716653 L24.9898733,53.5721253 L25.0933383,53.5716653 L25.1968032,53.5721253 L25.1968032,53.5716653 C34.4590442,53.5445227 40.9343452,51.0984687 44.4393983,46.3011297 C46.4704299,43.5215438 47.4375203,40.0482115 47.3127954,35.977282 C47.2017713,32.3599559 46.2323187,29.2859418 45.8212935,28.1316914 C45.2699527,26.5841033 44.6449109,25.0199537 44.0406566,23.507329 L44.0231762,23.4645449 C43.4779772,22.1032747 42.8619118,20.5644274 42.3195475,19.0605435 C44.660974,18.1625376 45.5463317,16.8412912 45.8765693,15.8853198 C46.3017678,14.6519418 46.0371998,13.2925117 45.1683775,12.2491319 C44.5494775,11.5061608 43.694356,10.954108 42.8316754,10.4756622 C44.0902631,10.3399492 45.3011339,9.92498954 46.3527916,9.2671266 C48.7589428,7.76278268 50.1918618,5.10280819 50.1866649,2.15070576 Z M27.6620097,46.325512 C28.9035894,46.8932063 30.3332013,47.193155 31.7958842,47.193155 C34.2256575,47.193155 36.6393677,46.3682961 38.4181149,44.9306586 C40.3215869,43.3927314 43.2327794,39.7533233 41.3434806,32.6622048 L41.3085199,32.5646755 L41.3047403,32.5660556 C41.0992277,31.9781194 40.5289893,31.5760409 39.8845773,31.5760409 C39.0554402,31.5760409 38.3812643,32.2320637 38.3812643,33.0389809 C38.3812643,33.1940157 38.4072487,33.3490505 38.4563827,33.4935044 C39.510875,37.5432718 38.8154392,40.8049839 36.4981073,42.6782831 C35.23763,43.6968205 33.5788833,44.2580742 31.8275379,44.2580742 C30.7862739,44.2580742 29.7606006,44.0510544 28.9390226,43.6761186 C27.8708295,43.1870918 26.5966512,42.2044378 26.5966512,40.2980154 L26.5966512,29.6650181 L33.614789,25.4257125 L33.6880176,25.3792481 L33.6870727,25.3769478 C34.0881766,25.1027616 34.3248705,24.6620395 34.3248705,24.1822135 C34.3248705,23.3748363 33.6511671,22.7183535 32.8225024,22.7183535 C32.5706904,22.7183535 32.3231304,22.7804594 32.1020271,22.8986907 L32.0991925,22.8959305 L25.0938107,27.1287954 L18.1569331,22.9382545 L18.071421,22.8876497 L18.0690588,22.89041 C17.8517351,22.7776992 17.6098444,22.7183535 17.3641741,22.7183535 C16.5355095,22.7183535 15.8613336,23.3748363 15.8613336,24.1822135 C15.8613336,24.657439 16.0942479,25.0940208 16.4882652,25.3686671 L16.4849581,25.3732675 L23.5900253,29.6650181 L23.5900253,40.2980154 C23.5900253,42.2035177 22.3158471,43.1866317 21.2471815,43.6761186 C20.4260759,44.0510544 19.4004026,44.2580742 18.3591387,44.2580742 C16.6073208,44.2580742 14.9490466,43.6968205 13.6885692,42.6782831 C11.3712373,40.8049839 10.6758015,37.5432718 11.7279316,33.500405 C11.7789554,33.3499706 11.8049398,33.1944758 11.8049398,33.0389809 C11.8049398,32.2320637 11.1312363,31.5760409 10.3025717,31.5760409 C9.65815971,31.5760409 9.08886614,31.9776593 8.88240864,32.5646755 L8.87012512,32.5614552 L8.84366833,32.6622048 C6.95436959,39.7533233 9.86461721,43.3927314 11.7685617,44.9306586 C13.5468364,46.3682961 15.961019,47.193155 18.3912648,47.193155 C19.8534752,47.193155 21.2830871,46.8932063 22.5246668,46.325512 C23.5588441,45.8525868 24.4224695,45.2145057 25.0938107,44.4287506 C25.764207,45.2145057 26.6278325,45.8525868 27.6620097,46.325512 Z" id="Fill-1" fill="#3FC2CD" mask="url(#mask-2)"></path>
            </g>
            <path d="M69.2895087,38.7006013 C68.5210961,39.265798 67.6118216,39.6961118 66.5616578,39.9915556 C65.5114939,40.2869993 64.4101191,40.434719 63.2575003,40.434719 C61.7719027,40.434719 60.5168477,40.197083 59.4922977,39.7218039 C58.4677476,39.2465249 57.6289098,38.5657299 56.9757592,37.6793987 C56.3226085,36.7930675 55.8487612,35.7269169 55.554203,34.480915 C55.2596449,33.2349132 55.112368,31.8540555 55.112368,30.3383007 C55.112368,27.0755741 55.8295423,24.5771851 57.2639124,22.8430588 C58.6982825,21.1089325 60.7601586,20.2418824 63.4496025,20.2418824 C64.6790626,20.2418824 65.7228073,20.3382213 66.580868,20.530902 C67.4389287,20.7235827 68.213733,20.9997542 68.9053043,21.3594248 L68.0216343,24.0184052 C67.432518,23.6844253 66.7793771,23.421099 66.0621921,23.2284183 C65.3450071,23.0357376 64.576606,22.9393987 63.756966,22.9393987 C60.1198133,22.9393987 58.3012642,25.4056747 58.3012642,30.3383007 C58.3012642,31.3145495 58.3973143,32.2458256 58.5894174,33.1321569 C58.7815206,34.0184881 59.1016877,34.8020445 59.5499283,35.4828497 C59.998169,36.1636548 60.5872764,36.7095753 61.3172683,37.1206275 C62.0472603,37.5316796 62.9501315,37.7372026 64.025909,37.7372026 C64.9480041,37.7372026 65.7740352,37.5959056 66.5040271,37.3133072 C67.234019,37.0307088 67.8295298,36.7095791 68.2905773,36.3499085 L69.2895087,38.7006013 Z M70.9276163,30.3383007 C70.9276163,27.0755741 71.6511939,24.5771851 73.0983709,22.8430588 C74.5455479,21.1089325 76.626634,20.2418824 79.3416916,20.2418824 C80.7760617,20.2418824 82.0247134,20.4795183 83.0876841,20.9547974 C84.1506548,21.4300765 85.0279126,22.1108714 85.7194839,22.9972026 C86.4110552,23.8835338 86.9233225,24.9496844 87.2563013,26.1956863 C87.5892801,27.4416881 87.755767,28.8225458 87.755767,30.3383007 C87.755767,33.6010272 87.0321893,36.0994162 85.5850124,37.8335425 C84.1378354,39.5676688 82.0567493,40.434719 79.3416916,40.434719 C77.9073216,40.434719 76.6586699,40.197083 75.5956992,39.7218039 C74.5327285,39.2465249 73.6554707,38.5657299 72.9638994,37.6793987 C72.2723281,36.7930675 71.7600607,35.7269169 71.427082,34.480915 C71.0941032,33.2349132 70.9276163,31.8540555 70.9276163,30.3383007 Z M74.1165124,30.3383007 C74.1165124,31.3145495 74.2125626,32.2522482 74.4046657,33.1514248 C74.5967688,34.0506014 74.8977259,34.8341579 75.3075459,35.5021176 C75.717366,36.1700774 76.2552467,36.7095753 76.9212042,37.1206275 C77.5871618,37.5316796 78.3939828,37.7372026 79.3416916,37.7372026 C82.8251619,37.7628934 84.5668708,35.2966174 84.5668708,30.3383007 C84.5668708,29.336361 84.4708207,28.3858171 84.2787176,27.4866405 C84.0866144,26.5874639 83.7856574,25.8039075 83.3758374,25.1359477 C82.9660173,24.4679879 82.4281366,23.9349127 81.7621791,23.5367059 C81.0962215,23.1384991 80.2894005,22.9393987 79.3416916,22.9393987 C75.8582214,22.9137079 74.1165124,25.3799839 74.1165124,30.3383007 Z M104.301004,39.9722876 L104.301004,28.9895425 C104.301004,26.9856632 104.012853,25.4763537 103.436544,24.4615686 C102.860234,23.4467836 101.803683,22.9393987 100.266858,22.9393987 C98.909329,22.9393987 97.7887442,23.3054865 96.9050697,24.0376732 C96.0213953,24.7698599 95.4002711,25.6882908 95.0416786,26.7929935 L95.0416786,39.9722876 L91.9680438,39.9722876 L91.9680438,20.7043137 L94.1195882,20.7043137 L94.6958947,23.0550065 L94.8495764,23.0550065 C95.4643065,22.2329022 96.2903376,21.5585299 97.3276945,21.0318693 C98.3650515,20.5052087 99.6008964,20.2418824 101.035267,20.2418824 C102.08543,20.2418824 103.007512,20.3639116 103.801538,20.6079739 C104.595564,20.8520361 105.255108,21.2823499 105.78019,21.8989281 C106.305272,22.5155064 106.702279,23.3440209 106.971224,24.3844967 C107.240168,25.4249725 107.374638,26.7416042 107.374638,28.3344314 L107.374638,39.9722876 L104.301004,39.9722876 Z M109.819575,20.7043137 L112.816369,20.7043137 L112.816369,16.8892549 L115.890004,16.0029281 L115.890004,20.7043137 L121.115183,20.7043137 L121.115183,23.4018301 L115.890004,23.4018301 L115.890004,34.0762876 C115.890004,35.4122071 116.056491,36.3563284 116.38947,36.9086797 C116.722448,37.4610311 117.285942,37.7372026 118.079969,37.7372026 C118.745926,37.7372026 119.30942,37.6665541 119.770468,37.5252549 C120.231515,37.3839557 120.743783,37.1977005 121.307285,36.9664837 L121.998853,39.3171765 C121.307282,39.6511564 120.551687,39.9209053 119.732047,40.1264314 C118.912407,40.3319575 118.028746,40.434719 117.081037,40.434719 C115.518599,40.434719 114.417224,39.99156 113.77688,39.1052288 C113.136536,38.2188975 112.816369,36.7352784 112.816369,34.6543268 L112.816369,23.4018301 L109.819575,23.4018301 L109.819575,20.7043137 Z M138.351987,38.4308497 C137.583575,39.0474279 136.61667,39.535545 135.451245,39.8952157 C134.285819,40.2548863 133.049974,40.434719 131.743673,40.434719 C130.283689,40.434719 129.015827,40.197083 127.94005,39.7218039 C126.864272,39.2465249 125.980611,38.5657299 125.289039,37.6793987 C124.597468,36.7930675 124.085201,35.7333395 123.752222,34.500183 C123.419243,33.2670265 123.252756,31.8797463 123.252756,30.3383007 C123.252756,27.0498833 123.982737,24.5450718 125.442721,22.8237908 C126.902705,21.1025099 128.990195,20.2418824 131.705252,20.2418824 C132.57612,20.2418824 133.446974,20.3382213 134.317842,20.530902 C135.188709,20.7235827 135.969917,21.0896705 136.661488,21.6291765 C137.35306,22.1686824 137.916554,22.9329711 138.351987,23.9220654 C138.787421,24.9111596 139.005135,26.2149462 139.005135,27.8334641 C139.005135,28.6812591 138.928295,29.6189578 138.774612,30.6465882 L126.441653,30.6465882 C126.441653,31.7769817 126.556913,32.7789063 126.787436,33.6523922 C127.01796,34.525878 127.376547,35.2644763 127.863209,35.8682092 C128.34987,36.471942 128.983801,36.9343688 129.76502,37.2555033 C130.54624,37.5766378 131.500338,37.7372026 132.627343,37.7372026 C133.49821,37.7372026 134.369065,37.5830604 135.239932,37.2747712 C136.1108,36.9664821 136.763941,36.6068169 137.199374,36.1957647 L138.351987,38.4308497 Z M131.743673,22.9393987 C130.232461,22.9393987 129.02223,23.3375995 128.112941,24.1340131 C127.203653,24.9304266 126.659369,26.2920165 126.480073,28.2188235 L136.008341,28.2188235 C136.008341,26.2663257 135.636947,24.8983133 134.894148,24.1147451 C134.15135,23.3311769 133.101201,22.9393987 131.743673,22.9393987 Z M155.550371,39.9722876 L155.550371,28.9895425 C155.550371,26.9856632 155.262221,25.4763537 154.685912,24.4615686 C154.109602,23.4467836 153.053051,22.9393987 151.516226,22.9393987 C150.158697,22.9393987 149.038112,23.3054865 148.154438,24.0376732 C147.270763,24.7698599 146.649639,25.6882908 146.291047,26.7929935 L146.291047,39.9722876 L143.217412,39.9722876 L143.217412,20.7043137 L145.368956,20.7043137 L145.945263,23.0550065 L146.098944,23.0550065 C146.713674,22.2329022 147.539705,21.5585299 148.577062,21.0318693 C149.614419,20.5052087 150.850264,20.2418824 152.284634,20.2418824 C153.334798,20.2418824 154.256879,20.3639116 155.050906,20.6079739 C155.844932,20.8520361 156.504476,21.2823499 157.029558,21.8989281 C157.55464,22.5155064 157.951647,23.3440209 158.220592,24.3844967 C158.489536,25.4249725 158.624006,26.7416042 158.624006,28.3344314 L158.624006,39.9722876 L155.550371,39.9722876 Z M161.068943,20.7043137 L164.065737,20.7043137 L164.065737,16.8892549 L167.139372,16.0029281 L167.139372,20.7043137 L172.364551,20.7043137 L172.364551,23.4018301 L167.139372,23.4018301 L167.139372,34.0762876 C167.139372,35.4122071 167.305859,36.3563284 167.638837,36.9086797 C167.971816,37.4610311 168.53531,37.7372026 169.329337,37.7372026 C169.995294,37.7372026 170.558788,37.6665541 171.019836,37.5252549 C171.480883,37.3839557 171.993151,37.1977005 172.556653,36.9664837 L173.248221,39.3171765 C172.55665,39.6511564 171.801055,39.9209053 170.981415,40.1264314 C170.161775,40.3319575 169.278114,40.434719 168.330405,40.434719 C166.767966,40.434719 165.666592,39.99156 165.026248,39.1052288 C164.385904,38.2188975 164.065737,36.7352784 164.065737,34.6543268 L164.065737,23.4018301 L161.068943,23.4018301 L161.068943,20.7043137 Z M188.832947,38.7776732 C188.064534,39.3428699 187.13605,39.7731837 186.047465,40.0686275 C184.958881,40.3640712 183.838296,40.5117908 182.685677,40.5117908 C181.148852,40.5117908 179.848974,40.2677323 178.786003,39.7796078 C177.723032,39.2914834 176.858581,38.6042659 176.192623,37.7179346 C175.526666,36.8316034 175.046415,35.7590303 174.751857,34.500183 C174.457299,33.2413358 174.310022,31.8540555 174.310022,30.3383007 C174.310022,27.0755741 175.040003,24.56434 176.499987,22.8045229 C177.959971,21.0447058 180.08588,20.1648105 182.877779,20.1648105 C184.286536,20.1648105 185.419927,20.2804171 186.277988,20.511634 C187.136048,20.7428508 187.910853,21.0382901 188.602424,21.3979608 L187.411391,25.4827712 C186.822274,25.2001729 186.23957,24.9818047 185.663261,24.8276601 C185.086951,24.6735156 184.427407,24.5964444 183.684608,24.5964444 C182.301466,24.5964444 181.251318,25.0524486 180.534133,25.9644706 C179.816948,26.8764926 179.45836,28.3344214 179.45836,30.3383007 C179.45836,31.160405 179.548007,31.918271 179.727304,32.6119216 C179.9066,33.3055721 180.17554,33.9092959 180.534133,34.4231111 C180.892725,34.9369263 181.360169,35.3415497 181.936479,35.6369935 C182.512788,35.9324372 183.185139,36.0801569 183.953551,36.0801569 C184.798805,36.0801569 185.51598,35.9709728 186.105096,35.7526013 C186.694212,35.5342298 187.219286,35.2709035 187.680334,34.9626144 L188.832947,38.7776732 Z M191.124202,21.8218562 C192.148752,21.3594225 193.365387,20.9933347 194.774143,20.7235817 C196.182899,20.4538287 197.655668,20.3189542 199.192493,20.3189542 C200.524408,20.3189542 201.63859,20.4795191 202.535071,20.8006536 C203.431552,21.1217881 204.142323,21.5777923 204.667405,22.1686797 C205.192487,22.7595672 205.563881,23.4660525 205.781598,24.2881569 C205.999315,25.1102612 206.108172,26.0351147 206.108172,27.0627451 C206.108172,28.1931385 206.069751,29.3299376 205.99291,30.4731765 C205.916069,31.6164153 205.871246,32.7403692 205.858439,33.8450719 C205.845632,34.9497746 205.877649,36.0223477 205.95449,37.0628235 C206.031331,38.1032993 206.223431,39.0859562 206.530796,40.0108235 L202.45823,40.0108235 L201.651401,37.3518431 L201.459299,37.3518431 C200.947024,38.1482567 200.236253,38.8354742 199.326965,39.4135163 C198.417676,39.9915584 197.245865,40.2805752 195.811495,40.2805752 C194.915014,40.2805752 194.108192,40.1457007 193.391007,39.8759477 C192.673822,39.6061947 192.059102,39.2208391 191.546827,38.7198693 C191.034552,38.2188995 190.637544,37.6280208 190.355793,36.9472157 C190.074042,36.2664105 189.933168,35.5021219 189.933168,34.6543268 C189.933168,33.4725518 190.195705,32.4770498 190.720787,31.6677908 C191.245869,30.8585319 192.001463,30.2034273 192.987593,29.7024575 C193.973722,29.2014877 195.151937,28.8546676 196.522273,28.6619869 C197.892609,28.4693062 199.423007,28.4115029 201.113515,28.4885752 C201.292811,27.0498926 201.190358,26.015855 200.806151,25.3864314 C200.421945,24.7570077 199.563897,24.4423007 198.231982,24.4423007 C197.233046,24.4423007 196.176495,24.5450622 195.062296,24.7505882 C193.948098,24.9561143 193.03242,25.2258633 192.315235,25.5598431 L191.124202,21.8218562 Z M197.463574,36.1572288 C198.46251,36.1572288 199.256524,35.932438 199.845641,35.4828497 C200.434757,35.0332614 200.870184,34.5515668 201.151935,34.0377516 L201.151935,31.532915 C200.357909,31.4558428 199.595911,31.4429976 198.865919,31.4943791 C198.135928,31.5457606 197.48919,31.6613673 196.925687,31.8412026 C196.362185,32.0210379 195.913951,32.2779417 195.580972,32.6119216 C195.247993,32.9459015 195.081507,33.3697926 195.081507,33.8836078 C195.081507,34.6029491 195.292817,35.1617148 195.715444,35.5599216 C196.138071,35.9581284 196.720775,36.1572288 197.463574,36.1572288 Z M220.578705,39.9722876 L220.578705,29.4905098 C220.578705,27.7178473 220.412218,26.459019 220.079239,25.7139869 C219.74626,24.9689549 219.054699,24.5964444 218.004535,24.5964444 C217.133668,24.5964444 216.4293,24.8340804 215.891411,25.3093595 C215.353523,25.7846385 214.943709,26.3947849 214.661958,27.139817 L214.661958,39.9722876 L209.667301,39.9722876 L209.667301,20.7043137 L213.547765,20.7043137 L214.124071,23.2476863 L214.277753,23.2476863 C214.866869,22.4255819 215.61606,21.7062514 216.525349,21.0896732 C217.434637,20.473095 218.606448,20.1648105 220.040818,20.1648105 C221.270279,20.1648105 222.275603,20.4152916 223.056823,20.9162614 C223.838042,21.4172313 224.44636,22.258591 224.881793,23.440366 C225.47091,22.4384264 226.226504,21.6420247 227.148599,21.0511373 C228.070694,20.4602498 229.184876,20.1648105 230.491177,20.1648105 C231.566954,20.1648105 232.482632,20.2932623 233.238238,20.5501699 C233.993844,20.8070775 234.608564,21.2502365 235.082419,21.8796601 C235.556273,22.5090838 235.908457,23.3504435 236.138981,24.4037647 C236.369505,25.4570859 236.484765,26.7929854 236.484765,28.4115033 L236.484765,39.9722876 L231.490108,39.9722876 L231.490108,29.1436863 C231.490108,27.6279314 231.330025,26.4911323 231.009853,25.7332549 C230.689681,24.9753775 229.97891,24.5964444 228.877519,24.5964444 C227.981037,24.5964444 227.270266,24.840503 226.745184,25.3286275 C226.220103,25.8167519 225.829499,26.4847016 225.573361,27.3324967 L225.573361,39.9722876 L220.578705,39.9722876 Z M255.335227,38.3152418 C254.566815,38.9318201 253.52307,39.4520502 252.203962,39.8759477 C250.884854,40.2998453 249.482522,40.5117908 247.996924,40.5117908 C244.89766,40.5117908 242.630877,39.6062051 241.196507,37.7950065 C239.762137,35.9838079 239.044963,33.4982642 239.044963,30.3383007 C239.044963,26.9471203 239.851784,24.4037732 241.46545,22.708183 C243.079117,21.0125928 245.3459,20.1648105 248.265867,20.1648105 C249.23919,20.1648105 250.186884,20.2932623 251.10898,20.5501699 C252.031075,20.8070775 252.850702,21.2309687 253.567887,21.8218562 C254.285072,22.4127437 254.861373,23.2091453 255.296807,24.211085 C255.732241,25.2130246 255.949954,26.4590078 255.949954,27.9490719 C255.949954,28.4885779 255.917938,29.0666113 255.853903,29.6831895 C255.789869,30.2997678 255.693819,30.9420272 255.56575,31.6099869 L244.039619,31.6099869 C244.116461,33.2285048 244.532678,34.4487976 245.288284,35.270902 C246.043889,36.0930063 247.266928,36.5040523 248.957435,36.5040523 C250.007599,36.5040523 250.94889,36.3434874 251.781337,36.0223529 C252.613784,35.7012184 253.247715,35.3736662 253.683149,35.0396863 L255.335227,38.3152418 Z M248.189026,24.172549 C246.882725,24.172549 245.915821,24.5643272 245.288284,25.3478954 C244.660747,26.1314636 244.28295,27.1783464 244.154881,28.4885752 L251.301082,28.4885752 C251.403537,27.1012741 251.192226,26.0351236 250.667145,25.2900915 C250.142063,24.5450595 249.316032,24.172549 248.189026,24.172549 Z M264.004275,33.4982484 C264.004275,34.397425 264.119535,35.0525295 264.350059,35.4635817 C264.580582,35.8746339 264.951976,36.0801569 265.464251,36.0801569 C265.771616,36.0801569 266.072573,36.0544665 266.367132,36.003085 C266.66169,35.9517034 267.02668,35.8360968 267.462114,35.6562614 L268,39.5869281 C267.59018,39.7924542 266.962652,39.9979772 266.117399,40.2035033 C265.272145,40.4090294 264.40129,40.5117908 263.504809,40.5117908 C262.044825,40.5117908 260.930644,40.1713934 260.162231,39.4905882 C259.393819,38.8097831 259.009618,37.6858292 259.009618,36.1186928 L259.009618,12.9971242 L264.004275,12.9971242 L264.004275,33.4982484 Z" id="contentcamel" fill="#556770"></path>
        </g>
    </g>
</svg>