<?xml version="1.0" encoding="utf-8"?>
<!-- Generator: Adobe Illustrator 19.0.0, SVG Export Plug-In . SVG Version: 6.00 Build 0)  -->
<svg version="1.1" id="Layer_1" xmlns="http://www.w3.org/2000/svg" xmlns:xlink="http://www.w3.org/1999/xlink" x="0px" y="0px"
	 viewBox="0 0 1855.7 455.6" style="enable-background:new 0 0 1855.7 455.6;" xml:space="preserve">
<style type="text/css">
	.st0{fill:#2E94CF;}
	.st1{fill:#435966;}
</style>
<g>
	<g>
		<path class="st0" d="M218.3,255.1l0.1-0.2c-49.9-36.2-87.6-99.3-57.3-149.2l0,0c13.6-16.6,30.8-30.3,50-41.6c2.1-1,4.2-2,6.4-3
			c-0.4,0-0.7,0-1.1-0.1c93.5-51.9,229.4-50.4,229.4-50.4S206.2-16.8,78.2,105.5c-25.1,21.4-44.5,49.1-55.7,80.4
			c0,0.1-0.1,0.2-0.1,0.3l0,0c-9.1,25.5-12.9,53.3-10.1,82.1c6.3,64.4,44.2,118.1,96.8,147.3c17.7,11.2,39.1,16.9,61.5,14.7
			c53.4-5.2,92.4-52.7,87.2-106.1C254.9,295.4,239.9,270.8,218.3,255.1z"/>
		<path class="st0" d="M305.3,92c-0.9,0.2-97.7,40.1-37.5,105.5c50.5,54.9,76.1,77.6,60.7,149.5c-5.8,29.6-24.3,55.7-53.9,77.2
			c74.2-31.4,122.8-108.3,114.5-192.8C383.4,172.4,351.2,122.4,305.3,92z"/>
	</g>
	<g>
		<path class="st1" d="M607.9,182.5c-4.4-5.6-10.5-9.8-18.1-12.5c-7.6-2.7-14.8-4-21.6-4c-4,0-8.1,0.5-12.3,1.4
			c-4.2,0.9-8.2,2.4-11.9,4.4c-3.7,2-6.8,4.6-9.1,7.9c-2.3,3.3-3.5,7.3-3.5,11.9c0,7.5,2.8,13.2,8.4,17.2c5.6,4,12.7,7.4,21.2,10.2
			c8.5,2.8,17.7,5.6,27.6,8.4c9.8,2.8,19,6.8,27.6,11.9c8.5,5.1,15.6,12.1,21.2,20.7c5.6,8.7,8.4,20.2,8.4,34.8
			c0,13.8-2.6,25.9-7.7,36.2c-5.2,10.3-12.1,18.8-20.9,25.6c-8.8,6.8-19,11.8-30.5,15.1c-11.6,3.3-23.8,4.9-36.7,4.9
			c-16.1,0-31.1-2.5-44.9-7.4c-13.8-4.9-26.7-12.9-38.6-23.9l39-42.8c5.6,7.5,12.7,13.3,21.2,17.4c8.5,4.1,17.4,6.1,26.5,6.1
			c4.4,0,9-0.5,13.5-1.6c4.6-1.1,8.7-2.6,12.3-4.7c3.6-2.1,6.5-4.8,8.8-8.1c2.2-3.3,3.3-7.1,3.3-11.6c0-7.5-2.9-13.4-8.6-17.7
			c-5.7-4.3-12.9-8-21.6-11.1c-8.7-3-18-6.1-28.1-9.1c-10.1-3-19.4-7.1-28.1-12.3c-8.7-5.1-15.9-11.9-21.6-20.4
			c-5.7-8.4-8.6-19.5-8.6-33.3c0-13.3,2.6-25,7.9-35.1c5.3-10.1,12.3-18.5,21.1-25.3c8.8-6.8,18.9-11.9,30.4-15.3
			c11.5-3.4,23.3-5.1,35.5-5.1c14,0,27.6,2,40.7,6c13.1,4,24.9,10.7,35.5,20L607.9,182.5z"/>
		<path class="st1" d="M778.1,348.9h-0.7c-5.9,9.1-13.6,15.7-23.3,19.7c-9.7,4-20,6-30.7,6c-8,0-15.6-1.1-23-3.3
			c-7.4-2.2-13.9-5.6-19.5-10c-5.6-4.4-10.1-9.9-13.3-16.5c-3.3-6.5-4.9-14.2-4.9-22.8c0-9.8,1.8-18.1,5.4-24.9
			c3.6-6.8,8.5-12.4,14.7-16.8c6.2-4.4,13.3-7.9,21.2-10.4c8-2.5,16.2-4.3,24.7-5.4c8.5-1.2,17.1-1.9,25.6-2.1
			c8.5-0.2,16.4-0.4,23.7-0.4c0-9.4-3.3-16.8-10-22.3c-6.7-5.5-14.6-8.2-23.7-8.2c-8.7,0-16.6,1.8-23.7,5.4
			c-7.1,3.6-13.5,8.6-19.1,14.9l-28.1-28.8c9.8-9.1,21.3-16,34.4-20.5c13.1-4.6,26.7-6.8,40.7-6.8c15.4,0,28.1,1.9,38.1,5.8
			c9.9,3.9,17.9,9.5,23.9,17c6,7.5,10.1,16.7,12.5,27.6c2.3,10.9,3.5,23.5,3.5,37.7v86.7h-48.4V348.9z M765.1,295.5
			c-4,0-9,0.2-14.9,0.5c-6,0.4-11.7,1.3-17.2,3c-5.5,1.6-10.2,4.1-14,7.4c-3.9,3.3-5.8,7.8-5.8,13.7c0,6.3,2.7,11,8.1,14
			c5.4,3,11,4.6,16.8,4.6c5.1,0,10.1-0.7,14.9-2.1c4.8-1.4,9.1-3.4,12.8-6c3.7-2.6,6.7-5.8,9-9.8c2.2-4,3.3-8.7,3.3-14v-11.2H765.1z
			"/>
		<path class="st1" d="M851.5,104.9h52.7v265.4h-52.7V104.9z"/>
		<path class="st1" d="M1094.7,340.8c-8.4,10.8-19.1,19.1-31.9,24.9c-12.9,5.8-26.2,8.8-40,8.8c-13.1,0-25.4-2.1-37-6.3
			c-11.6-4.2-21.6-10.2-30.2-18.1c-8.5-7.8-15.3-17.3-20.2-28.3c-4.9-11-7.4-23.3-7.4-36.9c0-13.6,2.5-25.9,7.4-36.9
			c4.9-11,11.6-20.4,20.2-28.3c8.5-7.8,18.6-13.9,30.2-18.1c11.6-4.2,23.9-6.3,37-6.3c12.2,0,23.2,2.1,33.2,6.3
			c9.9,4.2,18.4,10.2,25.3,18.1c6.9,7.8,12.2,17.3,16,28.3c3.7,11,5.6,23.3,5.6,36.9v16.5H980.6c2.1,10.1,6.7,18.1,13.7,24
			c7,6,15.7,9,26,9c8.7,0,16-1.9,21.9-5.8c6-3.9,11.2-8.8,15.6-14.9L1094.7,340.8z M1050.2,265.7c0.2-8.9-2.7-16.5-8.8-22.8
			c-6.1-6.3-13.9-9.5-23.5-9.5c-5.9,0-11,0.9-15.4,2.8c-4.4,1.9-8.2,4.3-11.4,7.2c-3.2,2.9-5.6,6.3-7.4,10.2
			c-1.8,3.9-2.8,7.9-3,12.1H1050.2z"/>
		<path class="st1" d="M1222.5,249.9c-7.7-9.6-17.9-14.4-30.5-14.4c-4.4,0-8.8,1.1-13,3.2c-4.2,2.1-6.3,5.7-6.3,10.9
			c0,4.2,2.2,7.3,6.5,9.3c4.3,2,9.8,3.7,16.5,5.3c6.7,1.5,13.8,3.2,21.4,4.9c7.6,1.8,14.7,4.5,21.4,8.2c6.7,3.7,12.2,8.8,16.5,15.3
			c4.3,6.4,6.5,15,6.5,25.8c0,11-2.4,20.1-7.2,27.2c-4.8,7.1-10.9,12.9-18.4,17.2c-7.5,4.3-15.9,7.4-25.3,9.1
			c-9.4,1.8-18.6,2.6-27.7,2.6c-11.9,0-24-1.7-36.2-5.1c-12.2-3.4-22.5-9.4-30.9-18.1l31.9-35.5c4.9,6.1,10.4,10.7,16.3,13.9
			c6,3.2,12.9,4.7,20.9,4.7c6.1,0,11.6-0.9,16.5-2.6c4.9-1.8,7.4-5,7.4-9.7c0-4.4-2.2-7.8-6.5-10c-4.3-2.2-9.8-4.1-16.5-5.6
			c-6.7-1.5-13.8-3.2-21.4-4.9c-7.6-1.8-14.7-4.4-21.4-7.9c-6.7-3.5-12.2-8.5-16.5-14.9c-4.3-6.4-6.5-15-6.5-25.8
			c0-10.1,2-18.7,6.1-26c4.1-7.3,9.5-13.2,16.1-17.9c6.7-4.7,14.3-8.1,23-10.4c8.7-2.2,17.4-3.3,26.3-3.3c11.2,0,22.6,1.6,34,4.9
			c11.5,3.3,21.2,9.1,29.1,17.6L1222.5,249.9z"/>
		<path class="st1" d="M1292,121.7h29.5v221.1h113.7v27.4H1292V121.7z"/>
		<path class="st1" d="M1444.4,288.1c0-12.9,2.2-24.6,6.7-35.1c4.4-10.5,10.5-19.6,18.3-27.2c7.7-7.6,17-13.5,27.7-17.7
			c10.8-4.2,22.5-6.3,35.1-6.3c12.6,0,24.3,2.1,35.1,6.3c10.8,4.2,20,10.1,27.7,17.7c7.7,7.6,13.8,16.7,18.3,27.2
			c4.4,10.5,6.7,22.2,6.7,35.1c0,12.9-2.2,24.6-6.7,35.1c-4.4,10.5-10.5,19.6-18.3,27.2c-7.7,7.6-17,13.5-27.7,17.7
			c-10.8,4.2-22.5,6.3-35.1,6.3c-12.6,0-24.3-2.1-35.1-6.3c-10.8-4.2-20-10.1-27.7-17.7c-7.7-7.6-13.8-16.7-18.3-27.2
			C1446.6,312.7,1444.4,301,1444.4,288.1z M1473.8,288.1c0,8.7,1.3,16.7,4,24c2.7,7.4,6.6,13.8,11.8,19.3c5.1,5.5,11.3,9.8,18.4,13
			c7.1,3.2,15.1,4.7,24,4.7c8.9,0,16.9-1.6,24-4.7c7.1-3.2,13.3-7.5,18.4-13c5.1-5.5,9.1-11.9,11.8-19.3c2.7-7.4,4-15.4,4-24
			c0-8.7-1.3-16.7-4-24c-2.7-7.4-6.6-13.8-11.8-19.3c-5.1-5.5-11.3-9.8-18.4-13c-7.1-3.2-15.2-4.7-24-4.7c-8.9,0-16.9,1.6-24,4.7
			c-7.1,3.2-13.3,7.5-18.4,13c-5.2,5.5-9.1,11.9-11.8,19.3C1475.2,271.4,1473.8,279.5,1473.8,288.1z"/>
		<path class="st1" d="M1667.6,229.2h-35.8V206h35.8v-36.9c0-10.1,0.9-19.2,2.8-27.6c1.9-8.3,5.1-15.5,9.7-21.6
			c4.6-6.1,10.6-10.8,18.1-14.2c7.5-3.4,16.7-5.1,27.7-5.1c3.5,0,7.3,0.4,11.2,1.1c4,0.7,7.3,1.8,9.8,3.2l-3.9,24.6
			c-6.6-2.3-12.8-3.5-18.6-3.5c-7,0-12.5,1.2-16.5,3.7c-4,2.5-7,5.9-9,10.2c-2,4.3-3.2,9.5-3.5,15.6c-0.3,6.1-0.5,12.6-0.5,19.7V206
			h40v23.2h-40v141.1h-27.4V229.2z"/>
		<path class="st1" d="M1845.2,229.2h-48.4v82.1c0,5.4,0.1,10.4,0.4,14.9c0.2,4.6,1.2,8.5,2.8,11.9c1.6,3.4,4.1,6.1,7.4,8.1
			c3.3,2,8,3,14,3c4,0,8.1-0.5,12.3-1.4c4.2-0.9,8.2-2.3,11.9-4.2l1.1,24.9c-4.7,2.1-9.9,3.6-15.6,4.6c-5.7,0.9-11.2,1.4-16.3,1.4
			c-9.8,0-17.7-1.3-23.5-3.9c-5.9-2.6-10.4-6.2-13.7-10.9c-3.3-4.7-5.4-10.5-6.5-17.4c-1.1-6.9-1.6-14.6-1.6-23v-90.2h-35.8V206
			h35.8v-46.7h27.4V206h48.4V229.2z"/>
	</g>
</g>
</svg>
