<?xml version="1.0" encoding="UTF-8"?>
<svg width="1031px" height="246px" viewBox="0 0 1031 246" version="1.1" xmlns="http://www.w3.org/2000/svg" xmlns:xlink="http://www.w3.org/1999/xlink">
    <title>Dropbox_logo_2017</title>
    <g id="Page-1" stroke="none" stroke-width="1" fill="none" fill-rule="evenodd">
        <g id="Dropbox_logo_2017">
            <path d="M133,72 L75,109 L133,146 L75,183 L17,145.8 L75,108.8 L17,72 L75,35 L133,72 Z M74.7,194.9 L132.7,157.9 L190.7,194.9 L132.7,231.9 L74.7,194.9 Z M133,145.8 L191,108.8 L133,72 L190.7,35 L248.7,72 L190.7,109 L248.7,146 L190.7,183 L133,145.8 Z" id="Shape" fill="#0061FF" fill-rule="nonzero"></path>
            <path d="M294.2,72 L341.1,72 C371,72 395.7,89.3 395.7,128.8 L395.7,137.1 C395.7,176.9 372.6,194.8 342,194.8 L294.2,194.8 L294.2,72 Z M320.4,94.3 L320.4,172.4 L340.5,172.4 C357.5,172.4 368.9,161.3 368.9,136.6 L368.9,130.1 C368.9,105.4 356.9,94.3 339.6,94.3 L320.4,94.3 Z M409.6,95.5 L430.6,95.5 L434,118.6 C438,102.9 448.2,94.5 466.7,94.5 L473.2,94.5 L473.2,121 L462.4,121 C441.1,121 435.9,128.4 435.9,149.4 L435.9,195.1 L410,195.1 L410,95.5 L409.6,95.5 Z M478.4,147.3 L478.4,144.5 C478.4,111.2 499.7,93 528.7,93 C558.3,93 579,111.2 579,144.5 L579,147.3 C579,180 558.9,197.6 528.7,197.6 C496.6,197.3 478.4,180.1 478.4,147.3 Z M552.5,147 L552.5,144.5 C552.5,126 543.2,114.9 528.4,114.9 C513.9,114.9 504.3,125.1 504.3,144.5 L504.3,147 C504.3,164.9 513.6,175.1 528.4,175.1 C543.2,174.8 552.5,164.9 552.5,147 Z M592.6,95.5 L614.2,95.5 L616.7,114.3 C621.9,101.7 633,93 649.4,93 C674.7,93 691.4,111.2 691.4,144.9 L691.4,147.7 C691.4,180.4 672.9,197.7 649.4,197.7 C633.7,197.7 622.9,190.6 617.6,179.2 L617.6,229.5 L592.3,229.5 L592.6,95.5 L592.6,95.5 Z M665.1,147 L665.1,144.8 C665.1,125 654.9,115.2 641.3,115.2 C626.8,115.2 617.2,126.3 617.2,144.8 L617.2,146.7 C617.2,164.3 626.5,175.4 641,175.4 C655.9,175.1 665.1,165.6 665.1,147 Z M729.7,176.7 L727.5,194.9 L705.3,194.9 L705.3,62.2 L730.6,62.2 L730.6,113.1 C736.2,100.1 747.3,93 763,93 C786.8,93.3 804.4,109.7 804.4,142.7 L804.4,145.8 C804.4,178.8 787.7,197.7 762.4,197.7 C745.7,197.3 734.9,189.6 729.7,176.7 Z M777.8,145.8 L777.8,143.3 C777.8,125.1 767.9,114.9 754,114.9 C739.8,114.9 729.9,126.3 729.9,143.6 L729.9,145.8 C729.9,164.3 739.5,175.1 753.7,175.1 C768.9,175.1 777.8,165.6 777.8,145.8 Z M815.5,147.3 L815.5,144.5 C815.5,111.2 836.8,93 865.8,93 C895.4,93 916.1,111.2 916.1,144.5 L916.1,147.3 C916.1,180 895.7,197.6 865.8,197.6 C833.7,197.3 815.5,180.1 815.5,147.3 Z M889.8,147 L889.8,144.5 C889.8,126 880.5,114.9 865.7,114.9 C851.2,114.9 841.6,125.1 841.6,144.5 L841.6,147 C841.6,164.9 850.9,175.1 865.7,175.1 C880.6,174.8 889.8,164.9 889.8,147 Z M950,143.3 L915.1,95.5 L945,95.5 L965.1,125.4 L985.5,95.5 L1015.1,95.5 L979.7,143 L1017,194.9 L987.7,194.9 L964.9,161.9 L942.7,194.9 L912.1,194.9 L950,143.3 Z" id="Shape" fill="#000000" fill-rule="nonzero"></path>
            <rect id="Rectangle" fill="#FFFFFF" style="mix-blend-mode: color;" x="0" y="0" width="1031" height="246"></rect>
        </g>
    </g>
</svg>