<?xml version="1.0" encoding="UTF-8"?>
<svg width="208px" height="190px" viewBox="0 0 208 190" version="1.1" xmlns="http://www.w3.org/2000/svg" xmlns:xlink="http://www.w3.org/1999/xlink">
    <title>excel</title>
    <defs>
        <radialGradient cx="0.185553163%" cy="49.9999981%" fx="0.185553163%" fy="49.9999981%" r="64.73859%" gradientTransform="translate(0.001856,0.500000),scale(1.000000,0.602127),translate(-0.001856,-0.500000)" id="radialGradient-1">
            <stop stop-color="#237F4C" offset="0%"></stop>
            <stop stop-color="#1E6C41" offset="100%"></stop>
        </radialGradient>
    </defs>
    <g id="Page-1" stroke="none" stroke-width="1" fill="none" fill-rule="evenodd">
        <g id="excel">
            <rect id="rect4556" fill="#FFFFFF" fill-rule="nonzero" x="25.5" y="29.026001" width="171.5" height="134.5"></rect>
            <g id="use3985" transform="translate(115.000000, 27.031249)" fill="#1F7144" fill-rule="nonzero">
                <path d="M1.26889,105.255993 L30.52156,105.255993 L30.52156,120.282704 L1.26889,120.282704 L1.26889,105.255993 Z M36.51889,105.255993 L65.77156,105.255993 L65.77156,120.251454 L36.51889,120.251454 L36.51889,105.255993 Z M1.26889,83.474743 L30.52156,83.474743 L30.52156,99.220204 L1.26889,99.220204 L1.26889,83.474743 Z M36.51889,83.474743 L65.77156,83.474743 L65.77156,99.220204 L36.51889,99.220204 L36.51889,83.474743 Z M1.26889,61.724744 L30.52156,61.724744 L30.52156,77.470205 L1.26889,77.470205 L1.26889,61.724744 Z M36.51889,61.724744 L65.77156,61.724744 L65.77156,77.470205 L36.51889,77.470205 L36.51889,61.724744 Z M1.26889,39.974744 L30.52156,39.974744 L30.52156,55.720205 L1.26889,55.720205 L1.26889,39.974744 Z M36.51889,39.974744 L65.77156,39.974744 L65.77156,55.720205 L36.51889,55.720205 L36.51889,39.974744 Z M1.26889,18.224744 L30.52156,18.224744 L30.52156,33.970205 L1.26889,33.970205 L1.26889,18.224744 Z M36.51889,18.224744 L65.77156,18.224744 L65.77156,33.970205 L36.51889,33.970205 L36.51889,18.224744 Z M0.25,0.250001 L0.25,6.218751 L78.53125,6.218751 L78.53125,133.000001 L0.25,133.000001 L0.25,139.000001 L78.03125,139.000001 C81.63743,139.000001 84.5625,136.074931 84.5625,132.468751 L84.5625,6.781251 C84.5625,3.175068 81.63743,0.250001 78.03125,0.250001 L0.25,0.250001 Z" id="rect3991"></path>
            </g>
            <path d="M120.84375,10.0625 L16.46875,28.625 L16.46875,164.5625 L120.78125,183.40625 L120.84375,10.0625 Z M87.46875,66 L72.53125,96.71875 L87.875,127.625 L74,126.8125 L64.875,104.1875 L55.9375,125.78125 L43.71875,125.09375 L58.0625,96.71875 L44.4375,68.03125 L57.65625,67.40625 L65.34375,88.3125 L74.59375,66.59375 L87.46875,66 Z" id="path3945" fill="url(#radialGradient-1)" fill-rule="nonzero"></path>
            <rect id="Rectangle" fill="#FFFFFF" style="mix-blend-mode: color;" x="0.760162602" y="-0.00270513977" width="207" height="190"></rect>
        </g>
    </g>
</svg>