<?xml version="1.0" encoding="UTF-8"?>
<svg width="1109px" height="246px" viewBox="0 0 1109 246" version="1.1" xmlns="http://www.w3.org/2000/svg" xmlns:xlink="http://www.w3.org/1999/xlink">
    <title>OneDrive_logo_and_wordmark</title>
    <g id="Page-1" stroke="none" stroke-width="1" fill="none" fill-rule="evenodd">
        <g id="OneDrive_logo_and_wordmark">
            <path d="M117.00003,215.551214 C98.52072,210.933914 88.22558,196.244954 88.1928631,174.449854 C88.18262,167.481754 88.68678,164.142954 90.42612,159.661134 C94.68974,148.674994 105.97787,140.386704 120.83173,137.335894 C128.22293,135.817814 130.50003,134.187874 130.50003,130.415264 C130.50003,129.231484 131.37973,125.706114 132.45483,122.581094 C137.33923,108.384454 146.38263,96.549644 156.04603,91.708334 C166.15963,86.641414 171.26573,85.498744 183.50003,85.564434 C200.87523,85.657734 209.54373,89.426764 221.66793,102.159584 L228.33583,109.162244 L234.30933,107.095024 C263.22013,97.089824 292.04133,114.121354 294.36453,142.583964 L295.00003,150.370254 L300.69323,152.410054 C316.95213,158.235444 324.59433,170.467924 323.20893,188.449854 C322.30293,200.209334 316.80473,209.597974 308.09463,214.258764 L303.99993,216.449854 L213.00003,216.625194 C143.07123,216.759934 120.84223,216.511254 117.00003,215.551214 L117.00003,215.551214 Z" id="path4256" fill="#094AB1" fill-rule="nonzero"></path>
            <path d="M48.78143,202.980224 C37.9934,200.416384 26.5624,190.888004 21.20213,179.991324 C18.1615,173.810154 18,172.901034 18,161.965854 C18,151.564844 18.25949,149.896224 20.68006,144.731784 C25.78286,133.844634 35.55977,125.978014 47.82687,122.889124 C50.41579,122.237224 52.8485,121.196704 53.23289,120.576854 C53.61728,119.956994 54.04428,116.580334 54.18176,113.073154 C55.03566,91.291244 69.32732,72.098834 89.2832,65.935084 C100.06447,62.605094 113.60913,63.424224 125.33573,68.115414 C129.05493,69.603294 128.63613,69.922294 136.50003,59.610884 C141.15063,53.512794 150.54773,45.928674 158.23973,42.065334 C166.54133,37.895864 175.17513,35.974934 185.50003,35.9999972 C214.35733,36.071044 239.22753,54.120924 248.42403,81.668294 C251.36233,90.469854 251.21583,92.934844 247.75003,93.007494 C246.23753,93.039194 241.90383,93.872134 238.11953,94.858464 L231.23903,96.651794 L224.96073,90.373584 C207.25893,72.671774 178.36933,68.845634 153.81023,80.950414 C143.99873,85.786344 136.11443,92.728984 130.15903,101.776694 C125.91333,108.227044 120.50003,120.260354 120.50003,123.247954 C120.50003,125.367474 118.78383,126.426574 111.45443,128.830244 C88.76232,136.272084 75.5175,153.458464 75.52665,175.449854 C75.52965,183.454044 77.59118,193.248094 80.45289,198.857514 C81.53167,200.972094 82.13359,202.982934 81.79049,203.326034 C80.91304,204.203484 52.68426,203.907754 48.78143,202.980224 L48.78143,202.980224 Z" id="path4248" fill="#094AB1" fill-rule="nonzero"></path>
            <g id="text3027" transform="translate(365.499960, 63.616194)" fill="#094AB1" fill-rule="nonzero">
                <path d="M59.68141,134.11145 C41.81027,134.11145 27.49876,128.22278 16.74684,116.44543 C5.99487,104.66812 0.61891,89.34587 0.61891,70.47864 C0.61891,50.20528 6.09741,34.03342 17.05446,21.96301 C28.01145,9.89282 42.92355,3.85754 61.79079,3.85754 C79.193044,3.85754 93.211584,9.71704 103.846451,21.43567 C114.481094,33.15452 119.798599,48.47677 119.798599,67.40247 C119.798599,87.96892 114.349259,104.22867 103.450943,116.18176 C92.552405,128.13489 77.962576,134.11145 59.68141,134.11145 L59.68141,134.11145 Z M60.7361,17.21692 C47.49386,17.21692 36.74191,21.99242 28.48024,31.54309 C20.21849,41.09396 16.08766,53.63301 16.08766,69.16028 C16.08766,84.68767 20.11595,97.18277 28.17262,106.64563 C36.22922,116.10854 46.73214,120.83997 59.68141,120.83997 C73.509456,120.83997 84.407882,116.32826 92.376724,107.30481 C100.345366,98.28141 104.329849,85.65447 104.329849,69.42395 C104.329849,52.7834 100.462554,39.92209 92.728287,30.83997 C84.993819,21.75804 74.329767,17.21692 60.7361,17.21692 L60.7361,17.21692 Z" id="path3010"></path>
                <path d="M217.357193,132.00208 L202.94313,132.00208 L202.94313,80.67395 C202.943056,61.57246 195.970406,52.02169 182.025162,52.02161 C174.818084,52.02169 168.856176,54.73164 164.13942,60.15149 C159.422591,65.57148 157.064195,72.41229 157.064224,80.67395 L157.064224,132.00208 L142.650162,132.00208 L142.650162,42.00208 L157.064224,42.00208 L157.064224,56.94348 L157.415787,56.94348 C164.212626,45.57638 174.056366,39.8927 186.947037,39.8927 C196.790718,39.8927 204.320007,43.0715 209.534927,49.42883 C214.749684,55.78633 217.357193,64.97089 217.357193,76.98254 L217.357193,132.00208 Z" id="path3012"></path>
                <path d="M316.93727,90.60559 L253.392349,90.60559 C253.626701,100.62515 256.32201,108.35952 261.478287,113.80872 C266.6345,119.25795 273.72434,121.98255 282.74782,121.98254 C292.88447,121.98255 302.20087,118.64271 310.69704,111.96301 L310.69704,125.49817 C302.78681,131.24036 292.32783,134.11145 279.32008,134.11145 C266.605203,134.11145 256.614979,130.02454 249.34938,121.85071 C242.083743,113.6769 238.450943,102.17789 238.450943,87.35364 C238.450943,73.34979 242.420657,61.93867 250.360123,53.12024 C258.299548,44.30197 268.157936,39.8927 279.93532,39.8927 C291.7126,39.8927 300.82392,43.70138 307.2693,51.31848 C313.71453,58.93574 316.93727,69.5119 316.93727,83.047 L316.93727,90.60559 Z M302.17165,78.38879 C302.11295,70.06854 300.10615,63.59394 296.15114,58.96497 C292.196,54.33614 286.70284,52.02161 279.67165,52.02161 C272.87473,52.02161 267.10325,54.45332 262.357193,59.31653 C257.611072,64.17988 254.681387,70.53729 253.56813,78.38879 L302.17165,78.38879 Z" id="path3014"></path>
                <path d="M340.75563,132.00208 L340.75563,5.96692 L375.56032,5.96692 C419.97428,5.96692 442.18141,26.44554 442.18141,67.40247 C442.18141,86.85564 436.01431,102.4855 423.68044,114.29211 C411.34636,126.09876 394.83759,132.00208 374.15407,132.00208 L340.75563,132.00208 Z M355.52126,19.32629 L355.52126,118.6427 L374.32985,118.6427 C390.85322,118.6427 403.71454,114.21889 412.91383,105.37122 C422.11295,96.5236 426.71266,83.98455 426.71266,67.75403 C426.71266,35.46897 409.54461,19.32629 375.20876,19.32629 L355.52126,19.32629 Z" id="path3016"></path>
                <path d="M511.96657,56.59192 C509.44698,54.6584 505.81417,53.69161 501.06813,53.69153 C494.91574,53.69161 489.77415,56.59199 485.64333,62.3927 C481.51244,68.19355 479.44701,76.10369 479.44704,86.12317 L479.44704,132.00208 L465.03297,132.00208 L465.03297,42.00208 L479.44704,42.00208 L479.44704,60.547 L479.7986,60.547 C481.84935,54.21895 484.98411,49.28243 489.2029,45.73743 C493.4216,42.19259 498.1384,40.42004 503.35329,40.42004 C507.10323,40.42004 509.97432,40.83029 511.96657,41.65051 L511.96657,56.59192 Z" id="path3018"></path>
                <path d="M534.99391,19.15051 C532.41577,19.15051 530.2185,18.27172 528.40211,16.51379 C526.5857,14.7561 525.67751,12.52954 525.67751,9.83411 C525.67751,7.13892 526.5857,4.89771 528.40211,3.11047 C530.2185,1.32349 532.41577,0.42981 534.99391,0.42981 C537.63061,0.42981 539.87181,1.32349 541.71754,3.11047 C543.56322,4.89771 544.4861,7.13892 544.4861,9.83411 C544.4861,12.41235 543.56322,14.60961 541.71754,16.4259 C539.87181,18.24242 537.63061,19.15051 534.99391,19.15051 L534.99391,19.15051 Z M542.02516,132.00208 L527.6111,132.00208 L527.6111,42.00208 L542.02516,42.00208 L542.02516,132.00208 Z" id="path3020"></path>
                <path d="M641.9568,42.00208 L606.09743,132.00208 L591.94704,132.00208 L557.84547,42.00208 L573.66579,42.00208 L596.51735,107.3927 C598.21653,112.19741 599.27121,116.38686 599.68141,119.96106 L600.03297,119.96106 C600.61887,115.44936 601.55637,111.3771 602.84547,107.74426 L626.75172,42.00208 L641.9568,42.00208 Z" id="path3022"></path>
                <path d="M729.67165,90.60559 L666.12672,90.60559 C666.36108,100.62515 669.05639,108.35952 674.21266,113.80872 C679.36888,119.25795 686.45871,121.98255 695.48219,121.98254 C705.61885,121.98255 714.93525,118.64271 723.43141,111.96301 L723.43141,125.49817 C715.52118,131.24036 705.06221,134.11145 692.05446,134.11145 C679.33958,134.11145 669.34935,130.02454 662.08376,121.85071 C654.81812,113.6769 651.18532,102.17789 651.18532,87.35364 C651.18532,73.34979 655.15503,61.93867 663.0945,53.12024 C671.03392,44.30197 680.89231,39.8927 692.66969,39.8927 C704.44698,39.8927 713.55829,43.70138 720.00368,51.31848 C726.44891,58.93574 729.67165,69.5119 729.67165,83.047 L729.67165,90.60559 Z M714.90602,78.38879 C714.84732,70.06854 712.84052,63.59394 708.88551,58.96497 C704.93037,54.33614 699.43721,52.02161 692.40602,52.02161 C685.6091,52.02161 679.83762,54.45332 675.09157,59.31653 C670.34545,64.17988 667.41576,70.53729 666.30251,78.38879 L714.90602,78.38879 Z" id="path3024"></path>
            </g>
            <rect id="Rectangle" fill="#FFFFFF" style="mix-blend-mode: color;" x="0" y="0" width="1109" height="246"></rect>
        </g>
    </g>
</svg>